mtllib materials.mtl
v 0.0821763 -0.2347513 0.7399999
v -0.7049744 -0.2026658 0.1778363
v -0.001990914 -0.1788564 0.6746621
v 0.08932582 -0.1825786 0.7398782
v -0.1288701 -0.136327 -0.7399999
v 0.6582803 -0.1684126 -0.1778364
v 0.4938592 -0.1092464 -0.300489
v 0.1576311 -0.1747131 0.631055
v 0.2170809 -0.1678674 0.5363412
v 0.5077811 -0.1343931 0.07320419
v -0.5633458 -0.1350077 -0.03653389
v -0.4074643 -0.02272499 0.4048204
v -0.3462538 -0.01489675 0.2957625
v -0.3366317 -0.01531792 0.3030618
v -0.4110766 -0.1174738 -0.2791259
v -0.3477966 -0.1101873 -0.3799419
v -0.2450436 -0.1146569 -0.3023944
v -0.314012 -0.1216092 -0.207157
v -0.03351858 -0.117395 -0.01120299
v 0.05128899 -0.09392905 -0.1235487
v 0.1631749 -0.1302717 -0.02601975
v -0.1408326 -0.09303784 0.5981885
v -0.1396007 0.09707379 0.3787611
v -0.1036695 0.04040349 0.3506745
v 0.6269235 -0.08029425 -0.2489849
v 0.5598549 -0.08905029 -0.126844
v -0.5259536 -0.1539499 0.3185914
v -0.6192502 -0.146014 0.2471401
v -0.578087 -0.08802712 0.1407025
v 0.0788874 -0.09233141 -0.5968516
v 0.1850365 -0.09665823 -0.5210424
v 0.1072609 -0.1022282 -0.4596196
v -0.4881389 -0.1263477 -0.1563517
v -0.3923902 -0.1304398 -0.08516878
v -0.3068154 -0.1343415 -0.01793271
v -0.204036 -0.1382097 0.05071467
v -0.2022462 -0.1382771 0.05191004
v -0.2741091 -0.1471205 0.1748128
v -0.1767763 -0.1306967 0.2292076
v -0.08709639 -0.05641448 0.108827
v -0.07289258 -0.05560076 0.1025885
v 0.07623911 0.1620141 0.3166311
v 0.1214298 0.02102387 0.2324452
v 0.2252167 0.01749504 0.2961841
v 0.2341938 0.01708972 0.3031789
v 0.4510852 -0.09328818 0.008895099
v 0.377661 -0.02476728 0.1226342
v 0.2642539 -0.08231711 -0.1197163
v 0.1533276 -0.07731402 -0.2060622
v 0.2481707 -0.05453622 -0.3413789
v 0.121642 -0.1174994 -0.2196456
v -0.03465265 -0.08860207 -0.2119169
v 0.05632043 -0.08357871 -0.2988902
v -0.2677312 -0.1009676 -0.5075005
v -0.2089802 -0.1171108 -0.6106972
v -0.1111178 -0.1216697 -0.5323735
v -0.1731992 -0.1049191 -0.4385329
v -0.3052986 -0.1341619 -0.0204218
v -0.1302178 -0.1294397 -0.07088202
v -0.3918179 -0.1304641 -0.0847432
v -0.3663699 -0.03467703 0.0618754
v -0.4500995 0.01078153 -0.03383678
v -0.6989099 -0.1485821 0.1731234
v -0.6387203 -0.03704011 0.08434835
v -0.4647714 0.05254126 0.01353663
v -0.4277716 -9.50098E-05 0.1296035
v -0.2566618 -0.06157696 0.166415
v -0.4919677 0.0009095669 0.2332038
v -0.1765803 -0.0859226 0.2533708
v -0.2036552 0.1547312 0.4765584
v -0.2404747 0.07901728 0.2629405
v -0.06179494 -0.07063627 0.3265361
v -0.04563686 0.1897099 0.6514928
v -0.146536 0.06163359 0.55275
v -0.08553612 0.1572627 0.4448301
v -0.01102832 0.2347515 0.5779108
v 0.1510847 -0.01486576 0.4678445
v 0.1784789 -0.1429644 0.1635183
v 0.2682361 -0.1469526 0.2324976
v 0.2868949 -0.03456485 0.3728473
v 0.2948392 -0.03369927 0.2456316
v 0.2598107 -0.1342689 0.04385746
v 0.3292058 -0.1106746 -0.04761463
v 0.3575892 -0.08834922 -0.07456863
v 0.4615387 0.04238248 0.1933004
v 0.37005 -0.02558804 0.1339368
v 0.6284654 -0.09228563 -0.07135171
v 0.4477839 -0.09311378 0.005948067
v 0.4290673 -0.06453228 -0.1691058
v 0.4369322 -0.07986653 -0.1913033
v 0.5241814 -0.08398092 -0.1207357
v 0.7049744 -0.08347559 -0.1932433
v 0.3631233 -0.07243848 -0.2549427
v 0.4024262 -0.1055194 -0.365788
v 0.2754143 -0.1003422 -0.4564968
v 0.2337157 -0.1063681 -0.1219442
v 0.2063593 -0.1341507 -0.1247557
v 0.270813 -0.1176437 0.03168714
v 0.1201155 -0.02625883 0.2537307
v -0.002075613 -0.1006432 0.1903185
v 0.1195756 -0.07065713 0.08029526
v -0.007866263 -0.08118773 0.1884061
v -0.2168709 -0.09022653 -0.1497179
v -0.2269351 -0.08037639 -0.1665977
v -0.157067 -0.08796525 -0.2486939
v 0.05426762 -0.0935967 -0.1281367
v -0.1207991 -0.09824967 -0.07869899
v -0.04246482 -0.08947694 -0.1998361
v -0.1480908 -0.08701229 -0.2618016
v -0.04389685 -0.07894182 -0.3786311
v 0.06510079 -0.08398485 -0.2919039
v 0.02666348 -0.07145047 -0.4816683
v 0.03271654 -0.07080781 -0.4905075
v -0.02804354 -0.1131753 -0.6488647
v -0.1047364 -0.1210171 -0.5413218
v -0.1364347 -0.1087571 -0.7262751
v -0.3071474 -0.1218872 -0.2166671
v -0.1481601 -0.07545984 -0.4327752
v -0.07003784 -0.07872534 -0.3757803
v -0.2369462 -0.08449078 -0.3089783
v -0.03022578 0.2107155 0.3224471
v 0.06562549 0.1853533 0.4704044
v 0.3913012 0.03429461 0.3052014
v -0.3288686 0.1386244 0.4870569
v -0.2436825 0.06981695 0.3834858
v 0.1745376 -0.07335699 0.1405843
v 0.1276356 -0.0750289 -0.007936716
v 0.1099164 -0.08752775 -0.438134
v 0.1890679 -0.1239867 -0.4401175
v 0.2617189 -0.06522012 -0.3730147
v 0.354635 -0.07328653 -0.2433332
v 0.2158146 -0.1026747 -0.462122
v 0.07050771 -0.09885335 -0.5950232
vn -0.5770822 0.08097664 0.8126615
vn 0.5770826 -0.08097146 -0.8126618
vn 0.007479306 -0.9976969 -0.06741624
vn -0.007479356 0.9976969 0.06741625
vn 0.8451071 -0.1145897 0.5221716
vn -0.8451067 0.1145949 -0.522171
vn -0.007479356 0.9976969 0.06741625
vn -0.007479356 0.9976969 0.06741625
vn 0.08275283 0.9611766 0.263233
vn 0.8620176 0.3806879 0.3346674
vn -0.1981595 0.9794095 -0.03859906
vn -0.2279145 0.8893501 0.3963729
vn -0.01256749 0.9971411 0.07450948
vn -0.007479356 0.9976969 0.06741625
vn -0.007479356 0.9976969 0.06741625
vn 0.2348416 0.7392743 0.6311281
vn 0.4473637 0.5598431 -0.6974534
vn 0.4582527 0.7552329 -0.4686446
vn 0 0 0
vn 0.1879761 0.9494388 0.2514577
vn 0.1167407 0.9892306 -0.08828574
vn -0.007479356 0.9976969 0.06741625
vn -0.4883118 0.8432046 -0.2248501
vn -0.007479356 0.9976969 0.06741625
vn -0.007479356 0.9976969 0.06741625
vn 0 0 0
vn -0.007479356 0.9976969 0.06741625
vn -0.5060446 0.6875443 0.5207702
vn -0.5289911 0.4671737 -0.708461
vn 0.9006754 0.4240186 -0.09482572
vn 0.163884 -0.1294314 -0.9779516
vn 0.08852878 0.9950472 0.04520833
vn 0.7402427 0.3167973 -0.5930262
vn 0.2548531 0.8967566 -0.3617697
vn 0.4690552 0.3528831 -0.8096052
vn -0.2571398 0.1116964 -0.9598973
vn -0.4835106 -0.00223129 0.8753356
vn -0.790563 0.605745 0.08990486
vn 0.7061281 0.5198275 0.4807936
vn 0.5640603 0.4223481 -0.7095477
vn 0.5372162 0.5266625 0.658806
vn -0.9702625 0.2347558 -0.05899376
vn -0.007479356 0.9976969 0.06741625
vn -0.776696 0.4008869 -0.4858321
vn -0.4662109 0.8479186 -0.2523519
vn -0.1096904 0.975152 0.1924745
vn 0 0 0
vn -0.007479356 0.9976969 0.06741625
vn -0.007479356 0.9976969 0.06741625
vn 0.1938419 0.956775 -0.2168111
vn -0.1464758 0.9587197 0.243724
vn -0.1883621 0.9764902 0.1048168
vn -0.2584273 0.9660199 0.00454105
vn -0.09582514 0.9790193 0.1798299
vn 0.5892484 -0.3452251 -0.7304832
vn 0.01406274 0.8807286 -0.4734123
vn -0.09096818 0.4888853 -0.867592
vn 0.4078954 0.8732958 0.2664126
vn 0 0 0
vn -0.005076242 0.9979108 0.06440742
vn -0.669608 0.6496506 -0.3599709
vn 0 0 0
vn -0.012568 0.9971412 0.07450893
vn -0.1684135 0.9845319 -0.04831179
vn -0.2959656 0.9457647 -0.1339159
vn -0.007479356 0.9976969 0.06741625
vn -0.007479356 0.9976969 0.06741625
vn -0.359281 0.9150919 -0.1830955
vn -0.007479356 0.9976969 0.06741625
vn -0.7605816 -0.2086572 -0.614799
vn -0.7817616 0.1490543 0.6055009
vn -0.9809519 0.188854 -0.04546962
vn -0.9022899 0.3465993 -0.2564013
vn 0.4085442 0.9061663 -0.1093363
vn -0.1075645 -0.1172423 -0.9872609
vn 0.9197352 0.3925197 0.00390581
vn 0.831345 0.3493155 0.4322547
vn 0.7293422 0.3747105 0.5724087
vn 0.8480928 0.3951453 0.3529855
vn 0.2602286 0.09124222 0.9612262
vn 0.5689589 0.4221562 -0.7057406
vn 0.3722993 0.8577963 0.354371
vn 0.8537259 0.3451602 -0.3898927
vn 0.8437884 -0.1325769 0.5200427
vn 0.1943194 0.5855156 -0.7870269
vn 0.6693271 -0.399417 0.626472
vn -0.5636153 0.8255076 -0.02958005
vn -0.8111334 0.251756 -0.5279028
vn -0.7315843 0.6772498 0.07821191
vn -0.5330189 0.7905605 -0.3015045
vn -0.2848301 0.7426087 -0.6061386
vn 0.1361626 -0.50172 0.8542462
vn -0.1508148 0.7617291 -0.630098
vn 0.4812284 -0.7416232 0.4673481
vn -0.6086122 0.7391461 -0.2885378
vn -0.03768815 0.9935449 0.1069967
vn 0.3563215 0.9283601 -0.1057474
vn -0.3367824 0.8142951 -0.4727588
vn -0.9919214 0.1257361 -0.0167981
vn -0.9078029 0.4193234 0.007847365
vn -0.595405 0.22732 0.770596
vn 0.859835 0.3834857 0.3370791
vn 0.7397565 0.3208815 -0.5914349
vn 0.69361 0.3065127 -0.6518857
vn 0.1876467 0.5291169 -0.8275408
vn 0.4461362 0.4235266 -0.7884082
vn -0.3190231 0.9273863 -0.1953943
vn -0.8113582 0.4663843 -0.3523966
vn -0.1686204 0.9022887 0.3967901
vn 0.8090279 0.1859918 -0.5575668
vn 0.3207425 0.002362811 -0.9471634
vn 0.1844198 0.7690866 0.61196
vn -0.4123724 0.5650827 -0.7145842
vn -0.7878848 0.6157895 0.00637
vn 0.4177613 0.9010985 -0.1161761
vn -0.5585399 -0.1826184 0.8091252
vn 0.6268631 0.6422881 0.4410312
vn 0.4765813 -0.3718621 -0.7966108
vn -0.1815736 0.8738227 -0.4510708
vn 0.1156562 0.9184698 0.3782022
vn 0.8164138 0.5685953 -0.1008365
vn 0.484083 0.8749864 -0.007903366
vn 0.6437263 0.7365886 0.2074938
vn -0.3207074 -0.02753464 -0.9467779
vn -0.2863353 0.7848582 -0.549554
vn -0.2522702 0.9650587 -0.07086244
vn 0.3018033 -0.9504421 0.07466289
vn -0.2974189 0.792084 -0.5330524
vn 0.9568012 -0.04067465 -0.2878836
vn 0.95276 -0.04501733 -0.300369
vn 0.4478989 0.8811786 -0.1513635
vn -0.2023883 0.8120521 -0.5473666
vn 0.6783047 0.7295034 0.08790556
vn -0.4433547 0.8787907 -0.1765321
vn -0.06449702 -0.9978573 0.01099426
vn 0.7294775 -0.6464286 -0.2235905
vn -0.7061426 0.6730542 0.2199101
vn 0.6600158 -0.6818097 0.3154592
vn 0.8233638 -0.1428129 0.5492507
vn -0.4626736 0.8565757 -0.2284979
vn 0.8187408 0.2211005 0.5298848
vn 0.2217847 -0.8941832 -0.388906
vn -0.2919861 0.5101547 0.8090032
vn -0.2743928 -0.9044229 0.3266924
vn -0.07142051 0.700205 0.7103605
vn -0.7486634 0.6600032 0.06244126
vn 0.4277784 0.8666754 0.2566697
vn -0.8302332 0.3976121 0.3906627
vn 0.2029703 0.8247496 0.5278174
vn -0.5749233 0.1347912 0.8070281
vn -0.8551877 0.05094447 -0.5158085
vn -0.8380222 0.02763738 -0.5449356
vn -0.9146543 -0.3984792 0.06798352
vn -0.2628802 0.3754484 -0.8887814
vn 0.1742784 0.976504 -0.1267553
vn 0.812593 0.2119864 0.5429127
vn 0.3123436 0.9499593 -0.004334765
vn -0.01140306 0.9580156 0.2864893
vn -0.8588215 0.1355311 -0.4940211
vn -0.8376399 0.1193601 -0.533022
vn -0.1096407 0.9680781 0.2253966
vn -0.01385491 0.9978979 0.06330747
vn -0.007788122 0.9987419 0.0495381
vn 0.08178171 0.9252858 0.3703483
vn 0.1698163 0.89187 0.4192019
vn -0.5041921 0.8148481 -0.2860295
vn 0.2593323 0.9476463 0.1863146
vn -0.4876491 0.8710387 0.05907586
vn 0.8104349 -0.01868598 0.5855306
vn 0.1243077 0.9903807 0.06077625
vn -0.01856118 0.9696407 -0.2438286
vn 0.249055 0.9245512 -0.2884037
vn -0.6041628 0.6130165 -0.5091149
vn -0.7355072 0.4674514 -0.4904267
vn -0.6495325 0.6340798 -0.4195835
vn 0.01745329 0.9962801 0.08438772
vn 0.06876352 0.9970654 -0.03364698
vn -0.8800732 0.1370101 -0.4546417
vn -0.9607457 0.2709259 0.05972277
vn -0.4925564 0.5758591 0.6525139
vn 0.4068166 0.9077201 0.1026858
vn -0.2959678 0.9457645 -0.1339124
vn 0.2628388 0.961477 -0.08048417
vn -0.2324469 0.9287151 -0.2888888
vn -0.2531168 -0.9672788 -0.01742416
vn -0.3249046 0.9344681 0.1456243
vn 0.2090021 0.7948512 -0.569675
vn -0.5951497 0.2067775 0.7765563
vn -0.03815093 0.9416741 -0.3343567
vn 0.406963 0.8639163 -0.2966978
vn -0.003127546 0.9215593 -0.388225
vn 0.2213343 0.9644886 -0.1441278
vn 0.4302916 0.8067954 -0.4048831
vn -0.1094857 0.9939606 -0.007437177
vn -0.1094855 0.9939606 -0.007438153
vn 0.3001376 -0.4585782 0.8364348
vn -0.5415986 0.6368559 0.5487124
vn 0.4582527 0.7552329 -0.4686446
vn 0.3524914 0.8980284 0.2632391
vn -0.1617251 0.9577464 0.2378376
vn -0.7766931 0.4001606 -0.4864351
vn 0.18054 0.9693379 -0.1667015
vn 0.1125653 0.9811788 -0.1568991
vn 0.1795672 0.9483023 0.2616839
vn 0.3798659 -0.7259436 -0.5733303
vn 0.4539984 -0.3945025 -0.7989074
vn 0.8032181 -0.3547642 0.4785217
vn 0.7540599 -0.4158259 0.5084115
vn -0.8451067 0.1145949 -0.522171
vn -0.8451067 0.1145949 -0.522171
vn -0.8451067 0.1145949 -0.522171
vn -0.8451067 0.1145949 -0.522171
vn -0.8451067 0.1145949 -0.522171
vn -0.8451067 0.1145949 -0.522171
vn 0.5195414 0.49075 -0.6994577
vn 0.5770826 -0.08097146 -0.8126618
vn 0.5770826 -0.08097146 -0.8126618
vn 0.5770826 -0.08097146 -0.8126618
vn 0.5770826 -0.08097146 -0.8126618
vn 0.5770826 -0.08097146 -0.8126618
vn -0.7095578 0.7045279 -0.01296578
vn -0.4992519 0.8171788 -0.2880386
vn 0.00960252 -0.8258229 0.5638476
vn 0.5988181 -0.7954679 -0.0929931
vn 0.3452211 -0.8481465 -0.4018333
vn -0.3059966 -0.9517576 0.02288356
vn 0.1184002 0.987811 -0.1010487
vn 0.01921705 0.7064133 0.7075386
vn 0 0 0
vn 0 0 0
vn 0 0 0
vn 0.1893053 0.981321 0.03424139
vn 0.03551117 0.9725549 0.2299478
usemtl mat10
f 4//1 3//1 2//1 1//1
f 7//2 6//2 5//2
f 2//3 5//3 6//3 1//3
f 8//4 3//4 4//4
f 5//6 2//6 11//6
f 18//8 17//8 16//8 15//8
f 21//9 20//9 19//9
f 26//11 25//11 7//11
f 32//13 31//13 30//13
f 34//14 33//14 11//14
f 38//15 37//15 36//15 35//15
f 47//18 10//18 46//18
f 50//19 49//19 48//19
f 53//20 52//20 51//20
f 57//21 56//21 55//21 54//21
f 36//22 59//22 58//22 35//22
f 36//24 37//24 59//24
f 34//25 60//25 18//25 15//25 33//25
f 60//27 58//27 18//27
f 64//28 63//28 28//28
f 82//43 78//43 79//43
f 84//44 83//44 82//44
f 26//46 10//46 87//46
f 91//47 90//47 89//47 84//47 88//47 46//47
f 26//48 87//48 92//48 25//48
f 7//49 94//49 93//49
f 93//50 94//50 95//50
f 96//51 83//51 89//51
f 21//52 96//52 51//52
f 78//53 98//53 97//53
f 82//54 83//54 96//54
f 105//58 104//58 103//58
f 52//59 108//59 107//59 20//59 106//59
f 53//60 110//60 109//60
f 51//61 49//61 50//61
f 113//62 112//62 110//62 53//62 111//62
f 32//63 95//63 31//63
f 115//64 30//64 114//64
f 110//65 112//65 115//65
f 56//66 115//66 114//66 116//66 55//66
f 17//67 57//67 54//67 16//67
f 117//68 104//68 17//68
f 120//69 105//69 109//69 119//69 118//69
f 79//89 86//89 82//89
f 82//90 86//90 47//90
f 82//91 47//91 88//91
f 3//116 22//116 27//116
f 19//132 127//132 97//132
f 97//133 127//133 78//133
f 97//135 21//135 19//135
f 98//136 82//136 96//136
f 97//137 98//137 96//137
f 21//138 97//138 96//138
f 82//139 98//139 78//139
f 3//142 27//142 28//142
f 3//144 28//144 63//144
f 3//150 63//150 2//150
f 2//151 63//151 64//151
f 2//152 64//152 11//152
f 52//155 106//155 51//155
f 51//156 106//156 20//156
f 51//157 20//157 21//157
f 37//158 19//158 107//158
f 37//159 107//159 59//159
f 59//160 107//160 108//160
f 59//161 108//161 109//161
f 109//162 108//162 52//162
f 109//163 52//163 53//163
f 59//164 103//164 58//164
f 58//165 103//165 104//165
f 109//166 105//166 103//166
f 59//167 109//167 103//167
f 58//168 104//168 117//168
f 18//169 117//169 17//169
f 58//170 117//170 18//170
f 119//171 110//171 115//171
f 118//172 119//172 115//172
f 56//173 57//173 118//173
f 115//174 56//174 118//174
f 120//175 118//175 57//175
f 110//176 119//176 109//176
f 104//177 105//177 120//177
f 17//178 120//178 57//178
f 104//179 120//179 17//179
f 51//180 111//180 53//180
f 128//181 111//181 51//181
f 115//182 112//182 113//182
f 30//183 113//183 128//183
f 115//184 113//184 30//184
f 129//185 32//185 30//185
f 128//186 51//186 50//186
f 32//187 128//187 50//187
f 48//188 49//188 51//188
f 32//189 50//189 130//189
f 95//190 130//190 93//190
f 32//191 130//191 95//191
f 90//192 7//192 93//192
f 89//193 90//193 93//193
f 131//194 89//194 93//194
f 89//195 131//195 48//195
f 89//196 48//196 96//196
f 96//197 48//197 51//197
f 88//198 47//198 46//198
f 91//199 46//199 10//199
f 82//200 88//200 84//200
f 83//201 84//201 89//201
f 7//202 90//202 91//202
f 7//203 91//203 26//203
f 26//204 91//204 10//204
f 7//205 25//205 92//205
f 7//206 92//206 6//206
f 6//207 92//207 87//207
f 6//208 87//208 10//208
f 55//209 116//209 5//209
f 16//210 54//210 55//210
f 15//211 16//211 55//211
f 33//212 15//212 55//212
f 11//213 33//213 55//213
f 5//214 11//214 55//214
f 5//215 116//215 114//215
f 94//216 7//216 5//216
f 95//217 94//217 5//217
f 31//218 95//218 5//218
f 114//219 30//219 31//219
f 5//220 114//220 31//220
f 132//223 128//223 32//223
f 133//224 30//224 128//224
f 132//225 129//225 133//225
f 133//226 129//226 30//226
f 132//227 133//227 128//227
f 32//228 129//228 132//228
f 130//229 50//229 48//229
f 131//230 93//230 130//230
f 48//231 131//231 130//231
f 111//232 128//232 113//232
f 107//233 19//233 20//233
usemtl mat16
f 6//5 10//5 9//5 8//5 4//5 1//5
f 14//7 13//7 12//7
f 24//10 23//10 22//10
f 29//12 28//12 27//12
f 41//16 40//16 39//16
f 45//17 44//17 43//17 42//17
f 38//23 40//23 37//23
f 62//26 61//26 35//26 58//26 60//26 34//26
f 65//29 11//29 64//29
f 67//31 38//31 66//31
f 69//33 39//33 67//33
f 24//35 72//35 69//35
f 42//36 72//36 24//36
f 73//37 22//37 3//37
f 8//39 9//39 77//39
f 44//40 79//40 78//40
f 77//41 9//41 80//41
f 80//42 81//42 79//42
f 100//55 43//55 99//55
f 101//56 19//56 41//56
f 102//57 42//57 43//57
f 73//71 74//71 22//71
f 8//78 76//78 73//78
f 77//79 76//79 8//79
f 8//80 73//80 3//80
f 79//81 44//81 45//81
f 80//82 45//82 77//82
f 79//83 45//83 80//83
f 10//84 85//84 123//84
f 47//85 85//85 10//85
f 10//86 123//86 80//86
f 79//88 81//88 86//88
f 70//92 124//92 12//92
f 70//94 12//94 27//94
f 27//95 12//95 13//95
f 66//96 13//96 14//96
f 66//97 14//97 67//97
f 67//98 14//98 125//98
f 67//99 125//99 71//99
f 22//101 70//101 27//101
f 67//103 71//103 69//103
f 69//104 71//104 23//104
f 69//105 23//105 24//105
f 39//106 69//106 72//106
f 39//107 72//107 102//107
f 102//108 72//108 42//108
f 39//109 102//109 41//109
f 41//110 102//110 100//110
f 100//111 102//111 43//111
f 67//112 39//112 40//112
f 12//113 124//113 125//113
f 42//117 77//117 45//117
f 44//118 99//118 43//118
f 126//119 99//119 44//119
f 41//120 100//120 101//120
f 35//121 61//121 38//121
f 38//123 61//123 66//123
f 38//124 67//124 40//124
f 37//125 40//125 41//125
f 19//126 101//126 127//126
f 127//127 101//127 100//127
f 37//128 41//128 19//128
f 78//129 126//129 44//129
f 127//130 126//130 78//130
f 99//131 126//131 127//131
f 99//134 127//134 100//134
f 10//141 80//141 9//141
f 68//143 27//143 13//143
f 27//148 68//148 29//148
f 28//149 29//149 64//149
f 65//153 62//153 34//153
f 11//154 65//154 34//154
f 12//222 125//222 14//222
usemtl mat21
f 66//30 62//30 65//30
f 13//32 66//32 68//32
f 23//34 71//34 70//34
f 76//38 75//38 74//38
f 47//45 86//45 81//45 85//45
f 22//70 74//70 75//70
f 22//72 75//72 24//72
f 24//73 75//73 121//73
f 42//74 121//74 122//74
f 24//75 121//75 42//75
f 42//76 122//76 77//76
f 77//77 122//77 76//77
f 80//87 123//87 81//87
f 125//93 124//93 70//93
f 71//100 125//100 70//100
f 23//102 70//102 22//102
f 74//114 73//114 76//114
f 76//115 122//115 121//115
f 66//122 61//122 62//122
f 81//140 123//140 85//140
f 64//145 29//145 65//145
f 65//146 29//146 68//146
f 65//147 68//147 66//147
f 76//221 121//221 75//221
