# MagicaVoxel @ Ephtracy

# group
o 

# material
mtllib hulls-2.mtl
usemtl palette

# normals
vn -1 0 0
vn 1 0 0
vn 0 0 1
vn 0 0 -1
vn 0 -1 0
vn 0 1 0

# texcoords
vt 0.263672 0.5
vt 0.271484 0.5
vt 0.310547 0.5
vt 0.923828 0.5
vt 0.927734 0.5
vt 0.943359 0.5
vt 0.951172 0.5
vt 0.958984 0.5
vt 0.966797 0.5
vt 0.974609 0.5
vt 0.994141 0.5

# verts
v -1.6 2 0.2
v -1.6 2 -0.2
v -1.6 2.1 0.2
v -1.6 2.1 -0.2
v -1.6 2.3 0.1
v -1.6 2.3 -0.1
v -1.6 2.4 0.2
v -1.6 2.4 0.1
v -1.6 2.4 -0.1
v -1.6 2.4 -0.2
v -1.6 2.5 0.2
v -1.6 2.5 -0.2
v -1.5 2 0.3
v -1.5 2 0.2
v -1.5 2 -0.2
v -1.5 2 -0.3
v -1.5 2.1 0.3
v -1.5 2.1 0.2
v -1.5 2.1 -0.2
v -1.5 2.1 -0.3
v -1.5 2.2 0.1
v -1.5 2.2 -0.1
v -1.5 2.3 0.2
v -1.5 2.3 0.1
v -1.5 2.3 -0.1
v -1.5 2.3 -0.2
v -1.5 2.4 0.3
v -1.5 2.4 0.2
v -1.5 2.4 0.1
v -1.5 2.4 -0.1
v -1.5 2.4 -0.2
v -1.5 2.4 -0.3
v -1.5 2.5 0.3
v -1.5 2.5 0.2
v -1.5 2.5 -0.2
v -1.5 2.5 -0.3
v -1.4 2 0.4
v -1.4 2 0.3
v -1.4 2 -0.3
v -1.4 2 -0.4
v -1.4 2.1 0.4
v -1.4 2.1 0.3
v -1.4 2.1 0.1
v -1.4 2.1 -0.1
v -1.4 2.1 -0.3
v -1.4 2.1 -0.4
v -1.4 2.2 0.2
v -1.4 2.2 0.1
v -1.4 2.2 -0.1
v -1.4 2.2 -0.2
v -1.4 2.3 0.3
v -1.4 2.3 0.2
v -1.4 2.3 0.1
v -1.4 2.3 -0.1
v -1.4 2.3 -0.2
v -1.4 2.3 -0.3
v -1.4 2.4 0.4
v -1.4 2.4 0.3
v -1.4 2.4 0.2
v -1.4 2.4 -0.2
v -1.4 2.4 -0.3
v -1.4 2.4 -0.4
v -1.4 2.5 0.4
v -1.4 2.5 0.3
v -1.4 2.5 -0.3
v -1.4 2.5 -0.4
v -1.3 2 0.5
v -1.3 2 0.4
v -1.3 2 -0.4
v -1.3 2 -0.5
v -1.3 2.1 0.5
v -1.3 2.1 0.4
v -1.3 2.1 0.2
v -1.3 2.1 0.1
v -1.3 2.1 -0.1
v -1.3 2.1 -0.2
v -1.3 2.1 -0.4
v -1.3 2.1 -0.5
v -1.3 2.2 0.3
v -1.3 2.2 0.2
v -1.3 2.2 0.1
v -1.3 2.2 -0.1
v -1.3 2.2 -0.2
v -1.3 2.2 -0.3
v -1.3 2.3 0.4
v -1.3 2.3 0.3
v -1.3 2.3 0.2
v -1.3 2.3 -0.2
v -1.3 2.3 -0.3
v -1.3 2.3 -0.4
v -1.3 2.4 0.5
v -1.3 2.4 0.4
v -1.3 2.4 0.3
v -1.3 2.4 -0.3
v -1.3 2.4 -0.4
v -1.3 2.4 -0.5
v -1.3 2.5 0.5
v -1.3 2.5 0.4
v -1.3 2.5 -0.4
v -1.3 2.5 -0.5
v -1.2 2 0.6
v -1.2 2 0.5
v -1.2 2 -0.5
v -1.2 2 -0.6
v -1.2 2.1 0.6
v -1.2 2.1 0.5
v -1.2 2.1 0.3
v -1.2 2.1 0.2
v -1.2 2.1 -0.2
v -1.2 2.1 -0.3
v -1.2 2.1 -0.5
v -1.2 2.1 -0.6
v -1.2 2.2 0.4
v -1.2 2.2 0.3
v -1.2 2.2 0.2
v -1.2 2.2 -0.2
v -1.2 2.2 -0.3
v -1.2 2.2 -0.4
v -1.2 2.3 0.5
v -1.2 2.3 0.4
v -1.2 2.3 0.3
v -1.2 2.3 -0.3
v -1.2 2.3 -0.4
v -1.2 2.3 -0.5
v -1.2 2.4 0.6
v -1.2 2.4 0.5
v -1.2 2.4 0.4
v -1.2 2.4 -0.4
v -1.2 2.4 -0.5
v -1.2 2.4 -0.6
v -1.2 2.5 0.6
v -1.2 2.5 0.5
v -1.2 2.5 -0.5
v -1.2 2.5 -0.6
v -1.1 2 0.7
v -1.1 2 0.6
v -1.1 2 -0.6
v -1.1 2 -0.7
v -1.1 2.1 0.7
v -1.1 2.1 0.6
v -1.1 2.1 0.4
v -1.1 2.1 0.3
v -1.1 2.1 -0.3
v -1.1 2.1 -0.4
v -1.1 2.1 -0.6
v -1.1 2.1 -0.7
v -1.1 2.2 0.5
v -1.1 2.2 0.4
v -1.1 2.2 0.3
v -1.1 2.2 -0.3
v -1.1 2.2 -0.4
v -1.1 2.2 -0.5
v -1.1 2.3 0.6
v -1.1 2.3 0.5
v -1.1 2.3 0.4
v -1.1 2.3 -0.4
v -1.1 2.3 -0.5
v -1.1 2.3 -0.6
v -1.1 2.4 0.7
v -1.1 2.4 0.6
v -1.1 2.4 0.5
v -1.1 2.4 -0.5
v -1.1 2.4 -0.6
v -1.1 2.4 -0.7
v -1.1 2.5 0.7
v -1.1 2.5 0.6
v -1.1 2.5 -0.6
v -1.1 2.5 -0.7
v -1 2 0.8
v -1 2 0.7
v -1 2 -0.7
v -1 2 -0.8
v -1 2.1 0.8
v -1 2.1 0.7
v -1 2.1 0.5
v -1 2.1 0.4
v -1 2.1 -0.4
v -1 2.1 -0.5
v -1 2.1 -0.7
v -1 2.1 -0.8
v -1 2.2 0.6
v -1 2.2 0.5
v -1 2.2 0.4
v -1 2.2 -0.4
v -1 2.2 -0.5
v -1 2.2 -0.6
v -1 2.3 0.7
v -1 2.3 0.6
v -1 2.3 0.5
v -1 2.3 -0.5
v -1 2.3 -0.6
v -1 2.3 -0.7
v -1 2.4 0.8
v -1 2.4 0.7
v -1 2.4 0.6
v -1 2.4 0.5
v -1 2.4 0.3
v -1 2.4 -0.3
v -1 2.4 -0.5
v -1 2.4 -0.6
v -1 2.4 -0.7
v -1 2.4 -0.8
v -1 2.5 0.8
v -1 2.5 0.7
v -1 2.5 0.5
v -1 2.5 0.3
v -1 2.5 -0.3
v -1 2.5 -0.5
v -1 2.5 -0.7
v -1 2.5 -0.8
v -0.9 2.1 0.6
v -0.9 2.1 0.5
v -0.9 2.1 -0.5
v -0.9 2.1 -0.6
v -0.9 2.2 0.7
v -0.9 2.2 0.6
v -0.9 2.2 0.5
v -0.9 2.2 -0.5
v -0.9 2.2 -0.6
v -0.9 2.2 -0.7
v -0.9 2.3 0.8
v -0.9 2.3 0.7
v -0.9 2.3 0.6
v -0.9 2.3 -0.6
v -0.9 2.3 -0.7
v -0.9 2.3 -0.8
v -0.9 2.4 0.8
v -0.9 2.4 0.7
v -0.9 2.4 0.3
v -0.9 2.4 0.2
v -0.9 2.4 -0.2
v -0.9 2.4 -0.3
v -0.9 2.4 -0.7
v -0.9 2.4 -0.8
v -0.9 2.5 0.3
v -0.9 2.5 0.2
v -0.9 2.5 -0.2
v -0.9 2.5 -0.3
v -0.8 2.2 0.8
v -0.8 2.2 0.7
v -0.8 2.2 -0.7
v -0.8 2.2 -0.8
v -0.8 2.3 0.8
v -0.8 2.3 0.7
v -0.8 2.3 -0.7
v -0.8 2.3 -0.8
v -0.8 2.4 0.2
v -0.8 2.4 0.1
v -0.8 2.4 -0.1
v -0.8 2.4 -0.2
v -0.8 2.5 0.2
v -0.8 2.5 0.1
v -0.8 2.5 -0.1
v -0.8 2.5 -0.2
v -0.7 2.1 0.7
v -0.7 2.1 0.6
v -0.7 2.1 -0.6
v -0.7 2.1 -0.7
v -0.7 2.2 0.7
v -0.7 2.2 0.6
v -0.7 2.2 -0.6
v -0.7 2.2 -0.7
v 0.1 2.4 0.5
v 0.1 2.4 0.4
v 0.1 2.4 -0.4
v 0.1 2.4 -0.5
v 0.1 2.5 0.5
v 0.1 2.5 -0.5
v 0.2 2.4 0.6
v 0.2 2.4 0.5
v 0.2 2.4 -0.5
v 0.2 2.4 -0.6
v 0.2 2.5 0.6
v 0.2 2.5 0.5
v 0.2 2.5 -0.5
v 0.2 2.5 -0.6
v 0.9 2.4 0.6
v 0.9 2.4 0.5
v 0.9 2.4 -0.5
v 0.9 2.4 -0.6
v 0.9 2.5 0.6
v 0.9 2.5 0.5
v 0.9 2.5 -0.5
v 0.9 2.5 -0.6
v 1 2.4 0.5
v 1 2.4 -0.5
v 1 2.5 0.5
v 1 2.5 -0.5
v 1.3 2.4 0.6
v 1.3 2.4 0.4
v 1.3 2.4 -0.4
v 1.3 2.4 -0.6
v 1.3 2.5 0.6
v 1.3 2.5 -0.6
v -1.5 2.4 0.1
v -1.5 2.4 -0.1
v -1.5 2.5 0.1
v -1.5 2.5 -0.1
v -1.4 2.4 0.2
v -1.4 2.4 0.1
v -1.4 2.4 -0.1
v -1.4 2.4 -0.2
v -1.4 2.5 0.2
v -1.4 2.5 0.1
v -1.4 2.5 -0.1
v -1.4 2.5 -0.2
v -1.3 2.4 0.3
v -1.3 2.4 0.2
v -1.3 2.4 -0.2
v -1.3 2.4 -0.3
v -1.3 2.5 0.3
v -1.3 2.5 0.2
v -1.3 2.5 -0.2
v -1.3 2.5 -0.3
v -1.2 2.4 0.4
v -1.2 2.4 0.3
v -1.2 2.4 -0.3
v -1.2 2.4 -0.4
v -1.2 2.5 0.4
v -1.2 2.5 0.3
v -1.2 2.5 -0.3
v -1.2 2.5 -0.4
v -1.1 2.4 0.5
v -1.1 2.4 0.4
v -1.1 2.4 -0.4
v -1.1 2.4 -0.5
v -1.1 2.5 0.5
v -1.1 2.5 0.4
v -1.1 2.5 -0.4
v -1.1 2.5 -0.5
v -0.5 2.4 0.2
v -0.5 2.4 0.1
v -0.5 2.4 -0.1
v -0.5 2.4 -0.2
v -0.5 2.5 0.2
v -0.5 2.5 0.1
v -0.5 2.5 -0.1
v -0.5 2.5 -0.2
v -0.4 2.4 0.3
v -0.4 2.4 0.2
v -0.4 2.4 -0.2
v -0.4 2.4 -0.3
v -0.4 2.5 0.3
v -0.4 2.5 0.2
v -0.4 2.5 -0.2
v -0.4 2.5 -0.3
v -0.3 2.4 0.6
v -0.3 2.4 0.3
v -0.3 2.4 -0.3
v -0.3 2.4 -0.6
v -0.3 2.5 0.6
v -0.3 2.5 0.3
v -0.3 2.5 -0.3
v -0.3 2.5 -0.6
v 0.2 2.4 0.5
v 0.2 2.4 -0.5
v 0.2 2.5 0.5
v 0.2 2.5 -0.5
v 0.3 2.4 0.6
v 0.3 2.4 0.5
v 0.3 2.4 -0.5
v 0.3 2.4 -0.6
v 0.3 2.5 0.6
v 0.3 2.5 0.5
v 0.3 2.5 -0.5
v 0.3 2.5 -0.6
v 1 2.4 0.6
v 1 2.4 0.5
v 1 2.4 -0.5
v 1 2.4 -0.6
v 1 2.5 0.6
v 1 2.5 0.5
v 1 2.5 -0.5
v 1 2.5 -0.6
v 1.1 2.4 0.5
v 1.1 2.4 0.4
v 1.1 2.4 -0.4
v 1.1 2.4 -0.5
v 1.1 2.5 0.5
v 1.1 2.5 -0.5
v 1.5 2 0.8
v 1.5 2 -0.8
v 1.5 2.1 0.8
v 1.5 2.1 0.7
v 1.5 2.1 -0.7
v 1.5 2.1 -0.8
v 1.5 2.2 0.8
v 1.5 2.2 0.7
v 1.5 2.2 -0.7
v 1.5 2.2 -0.8
v 1.5 2.4 0.8
v 1.5 2.4 -0.8
v 1.5 2.5 0.8
v 1.5 2.5 -0.8
v -1 2 0.8
v -1 2.1 0.8
v -1 2.4 0.8
v -1 2.5 0.8
v -0.9 2.3 0.8
v -0.9 2.4 0.8
v -0.8 2.2 0.8
v -0.8 2.3 0.8
v -0.8 2.4 0.8
v -0.8 2.5 0.8
v -0.5 2.3 0.8
v -0.5 2.4 0.8
v -0.5 2.5 0.8
v 1.5 2 0.8
v 1.5 2.1 0.8
v 1.5 2.2 0.8
v 1.5 2.4 0.8
v 1.5 2.5 0.8
v -1.1 2 0.7
v -1.1 2.1 0.7
v -1.1 2.4 0.7
v -1.1 2.5 0.7
v -1 2 0.7
v -1 2.1 0.7
v -1 2.3 0.7
v -1 2.4 0.7
v -1 2.5 0.7
v -0.9 2.2 0.7
v -0.9 2.3 0.7
v -0.9 2.4 0.7
v -0.8 2.2 0.7
v -0.8 2.3 0.7
v -0.7 2.1 0.7
v -0.7 2.2 0.7
v 1.5 2.1 0.7
v 1.5 2.2 0.7
v -1.2 2 0.6
v -1.2 2.1 0.6
v -1.2 2.4 0.6
v -1.2 2.5 0.6
v -1.1 2 0.6
v -1.1 2.1 0.6
v -1.1 2.3 0.6
v -1.1 2.4 0.6
v -1.1 2.5 0.6
v -1 2.2 0.6
v -1 2.3 0.6
v -1 2.4 0.6
v -0.9 2.1 0.6
v -0.9 2.2 0.6
v -0.9 2.3 0.6
v -0.7 2.1 0.6
v -0.7 2.2 0.6
v -1.3 2 0.5
v -1.3 2.1 0.5
v -1.3 2.4 0.5
v -1.3 2.5 0.5
v -1.2 2 0.5
v -1.2 2.1 0.5
v -1.2 2.3 0.5
v -1.2 2.4 0.5
v -1.2 2.5 0.5
v -1.1 2.2 0.5
v -1.1 2.3 0.5
v -1.1 2.4 0.5
v -1 2.1 0.5
v -1 2.2 0.5
v -1 2.3 0.5
v -0.9 2.1 0.5
v -0.9 2.2 0.5
v 0.1 2.4 0.5
v 0.1 2.5 0.5
v 0.2 2.4 0.5
v 0.2 2.5 0.5
v 1 2.4 0.5
v 1 2.5 0.5
v 1.1 2.4 0.5
v 1.1 2.5 0.5
v -1.4 2 0.4
v -1.4 2.1 0.4
v -1.4 2.4 0.4
v -1.4 2.5 0.4
v -1.3 2 0.4
v -1.3 2.1 0.4
v -1.3 2.3 0.4
v -1.3 2.4 0.4
v -1.3 2.5 0.4
v -1.2 2.2 0.4
v -1.2 2.3 0.4
v -1.2 2.4 0.4
v -1.1 2.1 0.4
v -1.1 2.2 0.4
v -1.1 2.3 0.4
v -1 2.1 0.4
v -1 2.2 0.4
v -1.5 2 0.3
v -1.5 2.1 0.3
v -1.5 2.4 0.3
v -1.5 2.5 0.3
v -1.4 2 0.3
v -1.4 2.1 0.3
v -1.4 2.3 0.3
v -1.4 2.4 0.3
v -1.4 2.5 0.3
v -1.3 2.2 0.3
v -1.3 2.3 0.3
v -1.3 2.4 0.3
v -1.2 2.1 0.3
v -1.2 2.2 0.3
v -1.2 2.3 0.3
v -1.1 2.1 0.3
v -1.1 2.2 0.3
v -1.6 2 0.2
v -1.6 2.1 0.2
v -1.6 2.4 0.2
v -1.6 2.5 0.2
v -1.5 2 0.2
v -1.5 2.1 0.2
v -1.5 2.3 0.2
v -1.5 2.4 0.2
v -1.5 2.5 0.2
v -1.4 2.2 0.2
v -1.4 2.3 0.2
v -1.4 2.4 0.2
v -1.3 2.1 0.2
v -1.3 2.2 0.2
v -1.3 2.3 0.2
v -1.2 2.1 0.2
v -1.2 2.2 0.2
v -1.6 2.3 0.1
v -1.6 2.4 0.1
v -1.5 2.2 0.1
v -1.5 2.3 0.1
v -1.5 2.4 0.1
v -1.4 2.1 0.1
v -1.4 2.2 0.1
v -1.4 2.3 0.1
v -1.3 2.1 0.1
v -1.3 2.2 0.1
v -1.5 2.4 -0.1
v -1.5 2.5 -0.1
v -1.4 2.4 -0.1
v -1.4 2.5 -0.1
v -0.8 2.4 -0.1
v -0.8 2.5 -0.1
v -0.5 2.4 -0.1
v -0.5 2.5 -0.1
v -1.4 2.4 -0.2
v -1.4 2.5 -0.2
v -1.3 2.4 -0.2
v -1.3 2.5 -0.2
v -0.9 2.4 -0.2
v -0.9 2.5 -0.2
v -0.8 2.4 -0.2
v -0.8 2.5 -0.2
v -0.5 2.4 -0.2
v -0.5 2.5 -0.2
v -0.4 2.4 -0.2
v -0.4 2.5 -0.2
v -1.3 2.4 -0.3
v -1.3 2.5 -0.3
v -1.2 2.4 -0.3
v -1.2 2.5 -0.3
v -1 2.4 -0.3
v -1 2.5 -0.3
v -0.9 2.4 -0.3
v -0.9 2.5 -0.3
v -0.4 2.4 -0.3
v -0.4 2.5 -0.3
v -0.3 2.4 -0.3
v -0.3 2.5 -0.3
v -1.2 2.4 -0.4
v -1.2 2.5 -0.4
v -1.1 2.4 -0.4
v -1.1 2.5 -0.4
v -1.1 2.4 -0.5
v -1.1 2.5 -0.5
v -1 2.4 -0.5
v -1 2.5 -0.5
v 0.2 2.4 -0.5
v 0.2 2.5 -0.5
v 0.3 2.4 -0.5
v 0.3 2.5 -0.5
v 0.9 2.4 -0.5
v 0.9 2.5 -0.5
v 1 2.4 -0.5
v 1 2.5 -0.5
v -0.3 2.4 -0.6
v -0.3 2.5 -0.6
v 0 2.4 -0.6
v 0.2 2.4 -0.6
v 0.2 2.5 -0.6
v 0.3 2.4 -0.6
v 0.3 2.5 -0.6
v 0.9 2.4 -0.6
v 0.9 2.5 -0.6
v 1 2.4 -0.6
v 1 2.5 -0.6
v 1.3 2.4 -0.6
v 1.3 2.5 -0.6
v -0.3 2.4 0.6
v -0.3 2.5 0.6
v 0 2.4 0.6
v 0.2 2.4 0.6
v 0.2 2.5 0.6
v 0.3 2.4 0.6
v 0.3 2.5 0.6
v 0.9 2.4 0.6
v 0.9 2.5 0.6
v 1 2.4 0.6
v 1 2.5 0.6
v 1.3 2.4 0.6
v 1.3 2.5 0.6
v -1.1 2.4 0.5
v -1.1 2.5 0.5
v -1 2.4 0.5
v -1 2.5 0.5
v 0.2 2.4 0.5
v 0.2 2.5 0.5
v 0.3 2.4 0.5
v 0.3 2.5 0.5
v 0.9 2.4 0.5
v 0.9 2.5 0.5
v 1 2.4 0.5
v 1 2.5 0.5
v -1.2 2.4 0.4
v -1.2 2.5 0.4
v -1.1 2.4 0.4
v -1.1 2.5 0.4
v -1.3 2.4 0.3
v -1.3 2.5 0.3
v -1.2 2.4 0.3
v -1.2 2.5 0.3
v -1 2.4 0.3
v -1 2.5 0.3
v -0.9 2.4 0.3
v -0.9 2.5 0.3
v -0.4 2.4 0.3
v -0.4 2.5 0.3
v -0.3 2.4 0.3
v -0.3 2.5 0.3
v -1.4 2.4 0.2
v -1.4 2.5 0.2
v -1.3 2.4 0.2
v -1.3 2.5 0.2
v -0.9 2.4 0.2
v -0.9 2.5 0.2
v -0.8 2.4 0.2
v -0.8 2.5 0.2
v -0.5 2.4 0.2
v -0.5 2.5 0.2
v -0.4 2.4 0.2
v -0.4 2.5 0.2
v -1.5 2.4 0.1
v -1.5 2.5 0.1
v -1.4 2.4 0.1
v -1.4 2.5 0.1
v -0.8 2.4 0.1
v -0.8 2.5 0.1
v -0.5 2.4 0.1
v -0.5 2.5 0.1
v -1.6 2.3 -0.1
v -1.6 2.4 -0.1
v -1.5 2.2 -0.1
v -1.5 2.3 -0.1
v -1.5 2.4 -0.1
v -1.4 2.1 -0.1
v -1.4 2.2 -0.1
v -1.4 2.3 -0.1
v -1.3 2.1 -0.1
v -1.3 2.2 -0.1
v -1.6 2 -0.2
v -1.6 2.1 -0.2
v -1.6 2.4 -0.2
v -1.6 2.5 -0.2
v -1.5 2 -0.2
v -1.5 2.1 -0.2
v -1.5 2.3 -0.2
v -1.5 2.4 -0.2
v -1.5 2.5 -0.2
v -1.4 2.2 -0.2
v -1.4 2.3 -0.2
v -1.4 2.4 -0.2
v -1.3 2.1 -0.2
v -1.3 2.2 -0.2
v -1.3 2.3 -0.2
v -1.2 2.1 -0.2
v -1.2 2.2 -0.2
v -1.5 2 -0.3
v -1.5 2.1 -0.3
v -1.5 2.4 -0.3
v -1.5 2.5 -0.3
v -1.4 2 -0.3
v -1.4 2.1 -0.3
v -1.4 2.3 -0.3
v -1.4 2.4 -0.3
v -1.4 2.5 -0.3
v -1.3 2.2 -0.3
v -1.3 2.3 -0.3
v -1.3 2.4 -0.3
v -1.2 2.1 -0.3
v -1.2 2.2 -0.3
v -1.2 2.3 -0.3
v -1.1 2.1 -0.3
v -1.1 2.2 -0.3
v -1.4 2 -0.4
v -1.4 2.1 -0.4
v -1.4 2.4 -0.4
v -1.4 2.5 -0.4
v -1.3 2 -0.4
v -1.3 2.1 -0.4
v -1.3 2.3 -0.4
v -1.3 2.4 -0.4
v -1.3 2.5 -0.4
v -1.2 2.2 -0.4
v -1.2 2.3 -0.4
v -1.2 2.4 -0.4
v -1.1 2.1 -0.4
v -1.1 2.2 -0.4
v -1.1 2.3 -0.4
v -1 2.1 -0.4
v -1 2.2 -0.4
v -1.3 2 -0.5
v -1.3 2.1 -0.5
v -1.3 2.4 -0.5
v -1.3 2.5 -0.5
v -1.2 2 -0.5
v -1.2 2.1 -0.5
v -1.2 2.3 -0.5
v -1.2 2.4 -0.5
v -1.2 2.5 -0.5
v -1.1 2.2 -0.5
v -1.1 2.3 -0.5
v -1.1 2.4 -0.5
v -1 2.1 -0.5
v -1 2.2 -0.5
v -1 2.3 -0.5
v -0.9 2.1 -0.5
v -0.9 2.2 -0.5
v 0.1 2.4 -0.5
v 0.1 2.5 -0.5
v 0.2 2.4 -0.5
v 0.2 2.5 -0.5
v 1 2.4 -0.5
v 1 2.5 -0.5
v 1.1 2.4 -0.5
v 1.1 2.5 -0.5
v -1.2 2 -0.6
v -1.2 2.1 -0.6
v -1.2 2.4 -0.6
v -1.2 2.5 -0.6
v -1.1 2 -0.6
v -1.1 2.1 -0.6
v -1.1 2.3 -0.6
v -1.1 2.4 -0.6
v -1.1 2.5 -0.6
v -1 2.2 -0.6
v -1 2.3 -0.6
v -1 2.4 -0.6
v -0.9 2.1 -0.6
v -0.9 2.2 -0.6
v -0.9 2.3 -0.6
v -0.7 2.1 -0.6
v -0.7 2.2 -0.6
v -1.1 2 -0.7
v -1.1 2.1 -0.7
v -1.1 2.4 -0.7
v -1.1 2.5 -0.7
v -1 2 -0.7
v -1 2.1 -0.7
v -1 2.3 -0.7
v -1 2.4 -0.7
v -1 2.5 -0.7
v -0.9 2.2 -0.7
v -0.9 2.3 -0.7
v -0.9 2.4 -0.7
v -0.8 2.2 -0.7
v -0.8 2.3 -0.7
v -0.7 2.1 -0.7
v -0.7 2.2 -0.7
v 1.5 2.1 -0.7
v 1.5 2.2 -0.7
v -1 2 -0.8
v -1 2.1 -0.8
v -1 2.4 -0.8
v -1 2.5 -0.8
v -0.9 2.3 -0.8
v -0.9 2.4 -0.8
v -0.8 2.2 -0.8
v -0.8 2.3 -0.8
v -0.8 2.4 -0.8
v -0.8 2.5 -0.8
v -0.5 2.3 -0.8
v -0.5 2.4 -0.8
v -0.5 2.5 -0.8
v 1.5 2 -0.8
v 1.5 2.1 -0.8
v 1.5 2.2 -0.8
v 1.5 2.4 -0.8
v 1.5 2.5 -0.8
v -1 2 0.8
v 1.5 2 0.8
v -1.1 2 0.7
v -1 2 0.7
v -1.2 2 0.6
v -1.1 2 0.6
v -1.3 2 0.5
v -1.2 2 0.5
v -1.4 2 0.4
v -1.3 2 0.4
v -1.5 2 0.3
v -1.4 2 0.3
v -1.6 2 0.2
v -1.5 2 0.2
v -1.6 2 -0.2
v -1.5 2 -0.2
v -1.5 2 -0.3
v -1.4 2 -0.3
v -1.4 2 -0.4
v -1.3 2 -0.4
v -1.3 2 -0.5
v -1.2 2 -0.5
v -1.2 2 -0.6
v -1.1 2 -0.6
v -1.1 2 -0.7
v -1 2 -0.7
v -1 2 -0.8
v 1.5 2 -0.8
v -0.8 2.2 0.8
v 1.5 2.2 0.8
v -0.9 2.2 0.7
v -0.8 2.2 0.7
v -0.7 2.2 0.7
v 1.5 2.2 0.7
v -1 2.2 0.6
v -0.9 2.2 0.6
v -0.7 2.2 0.6
v -1.1 2.2 0.5
v -1 2.2 0.5
v -0.9 2.2 0.5
v -1.2 2.2 0.4
v -1.1 2.2 0.4
v -1 2.2 0.4
v -1.3 2.2 0.3
v -1.2 2.2 0.3
v -1.1 2.2 0.3
v -1.4 2.2 0.2
v -1.3 2.2 0.2
v -1.2 2.2 0.2
v -1.5 2.2 0.1
v -1.4 2.2 0.1
v -1.3 2.2 0.1
v -1.5 2.2 -0.1
v -1.4 2.2 -0.1
v -1.3 2.2 -0.1
v -1.4 2.2 -0.2
v -1.3 2.2 -0.2
v -1.2 2.2 -0.2
v -1.3 2.2 -0.3
v -1.2 2.2 -0.3
v -1.1 2.2 -0.3
v -1.2 2.2 -0.4
v -1.1 2.2 -0.4
v -1 2.2 -0.4
v -1.1 2.2 -0.5
v -1 2.2 -0.5
v -0.9 2.2 -0.5
v -1 2.2 -0.6
v -0.9 2.2 -0.6
v -0.7 2.2 -0.6
v -0.9 2.2 -0.7
v -0.8 2.2 -0.7
v -0.7 2.2 -0.7
v 1.5 2.2 -0.7
v -0.8 2.2 -0.8
v 1.5 2.2 -0.8
v -0.9 2.3 0.8
v -0.8 2.3 0.8
v -1 2.3 0.7
v -0.9 2.3 0.7
v -0.8 2.3 0.7
v -1.1 2.3 0.6
v -1 2.3 0.6
v -0.9 2.3 0.6
v -1.2 2.3 0.5
v -1.1 2.3 0.5
v -1 2.3 0.5
v -1.3 2.3 0.4
v -1.2 2.3 0.4
v -1.1 2.3 0.4
v -1.4 2.3 0.3
v -1.3 2.3 0.3
v -1.2 2.3 0.3
v -1.5 2.3 0.2
v -1.4 2.3 0.2
v -1.3 2.3 0.2
v -1.6 2.3 0.1
v -1.5 2.3 0.1
v -1.4 2.3 0.1
v -1.6 2.3 -0.1
v -1.5 2.3 -0.1
v -1.4 2.3 -0.1
v -1.5 2.3 -0.2
v -1.4 2.3 -0.2
v -1.3 2.3 -0.2
v -1.4 2.3 -0.3
v -1.3 2.3 -0.3
v -1.2 2.3 -0.3
v -1.3 2.3 -0.4
v -1.2 2.3 -0.4
v -1.1 2.3 -0.4
v -1.2 2.3 -0.5
v -1.1 2.3 -0.5
v -1 2.3 -0.5
v -1.1 2.3 -0.6
v -1 2.3 -0.6
v -0.9 2.3 -0.6
v -1 2.3 -0.7
v -0.9 2.3 -0.7
v -0.8 2.3 -0.7
v -0.9 2.3 -0.8
v -0.8 2.3 -0.8
v -1 2.4 0.8
v -0.9 2.4 0.8
v -1.1 2.4 0.7
v -1 2.4 0.7
v -0.9 2.4 0.7
v -1.2 2.4 0.6
v -1.1 2.4 0.6
v -1 2.4 0.6
v -1.3 2.4 0.5
v -1.2 2.4 0.5
v -1.1 2.4 0.5
v -1.4 2.4 0.4
v -1.3 2.4 0.4
v -1.2 2.4 0.4
v -1.5 2.4 0.3
v -1.4 2.4 0.3
v -1.3 2.4 0.3
v -1.6 2.4 0.2
v -1.5 2.4 0.2
v -1.4 2.4 0.2
v -1.6 2.4 0.1
v -1.5 2.4 0.1
v -1.6 2.4 -0.1
v -1.5 2.4 -0.1
v -1.6 2.4 -0.2
v -1.5 2.4 -0.2
v -1.4 2.4 -0.2
v -1.5 2.4 -0.3
v -1.4 2.4 -0.3
v -1.3 2.4 -0.3
v -1.4 2.4 -0.4
v -1.3 2.4 -0.4
v -1.2 2.4 -0.4
v -1.3 2.4 -0.5
v -1.2 2.4 -0.5
v -1.1 2.4 -0.5
v -1.2 2.4 -0.6
v -1.1 2.4 -0.6
v -1 2.4 -0.6
v -1.1 2.4 -0.7
v -1 2.4 -0.7
v -0.9 2.4 -0.7
v -1 2.4 -0.8
v -0.9 2.4 -0.8
v -1 2.1 0.8
v 1.5 2.1 0.8
v -1.1 2.1 0.7
v -1 2.1 0.7
v -0.7 2.1 0.7
v 1.5 2.1 0.7
v -1.2 2.1 0.6
v -1.1 2.1 0.6
v -0.9 2.1 0.6
v -0.7 2.1 0.6
v -1.3 2.1 0.5
v -1.2 2.1 0.5
v -1 2.1 0.5
v -0.9 2.1 0.5
v -1.4 2.1 0.4
v -1.3 2.1 0.4
v -1.1 2.1 0.4
v -1 2.1 0.4
v -1.5 2.1 0.3
v -1.4 2.1 0.3
v -1.2 2.1 0.3
v -1.1 2.1 0.3
v -1.6 2.1 0.2
v -1.5 2.1 0.2
v -1.3 2.1 0.2
v -1.2 2.1 0.2
v -1.4 2.1 0.1
v -1.3 2.1 0.1
v -1.4 2.1 -0.1
v -1.3 2.1 -0.1
v -1.6 2.1 -0.2
v -1.5 2.1 -0.2
v -1.3 2.1 -0.2
v -1.2 2.1 -0.2
v -1.5 2.1 -0.3
v -1.4 2.1 -0.3
v -1.2 2.1 -0.3
v -1.1 2.1 -0.3
v -1.4 2.1 -0.4
v -1.3 2.1 -0.4
v -1.1 2.1 -0.4
v -1 2.1 -0.4
v -1.3 2.1 -0.5
v -1.2 2.1 -0.5
v -1 2.1 -0.5
v -0.9 2.1 -0.5
v -1.2 2.1 -0.6
v -1.1 2.1 -0.6
v -0.9 2.1 -0.6
v -0.7 2.1 -0.6
v -1.1 2.1 -0.7
v -1 2.1 -0.7
v -0.7 2.1 -0.7
v 1.5 2.1 -0.7
v -1 2.1 -0.8
v 1.5 2.1 -0.8
v -0.3 2.4 0.6
v 0 2.4 0.6
v 0.2 2.4 0.6
v 0.3 2.4 0.6
v 0.9 2.4 0.6
v 1 2.4 0.6
v 1.3 2.4 0.6
v -1.1 2.4 0.5
v -1 2.4 0.5
v 0.1 2.4 0.5
v 0.2 2.4 0.5
v 0.3 2.4 0.5
v 0.9 2.4 0.5
v 1 2.4 0.5
v 1.1 2.4 0.5
v -1.2 2.4 0.4
v -1.1 2.4 0.4
v 0 2.4 0.4
v 0.1 2.4 0.4
v 1.1 2.4 0.4
v 1.3 2.4 0.4
v -1.3 2.4 0.3
v -1.2 2.4 0.3
v -1 2.4 0.3
v -0.9 2.4 0.3
v -0.4 2.4 0.3
v -0.3 2.4 0.3
v -1.4 2.4 0.2
v -1.3 2.4 0.2
v -1 2.4 0.2
v -0.9 2.4 0.2
v -0.8 2.4 0.2
v -0.5 2.4 0.2
v -0.4 2.4 0.2
v -1.5 2.4 0.1
v -1.4 2.4 0.1
v -1.1 2.4 0.1
v -1 2.4 0.1
v -0.8 2.4 0.1
v -0.5 2.4 0.1
v -1.5 2.4 -0.1
v -1.4 2.4 -0.1
v -1.1 2.4 -0.1
v -1 2.4 -0.1
v -0.8 2.4 -0.1
v -0.5 2.4 -0.1
v -1.4 2.4 -0.2
v -1.3 2.4 -0.2
v -1 2.4 -0.2
v -0.9 2.4 -0.2
v -0.8 2.4 -0.2
v -0.5 2.4 -0.2
v -0.4 2.4 -0.2
v -1.3 2.4 -0.3
v -1.2 2.4 -0.3
v -1 2.4 -0.3
v -0.9 2.4 -0.3
v -0.4 2.4 -0.3
v -0.3 2.4 -0.3
v -1.2 2.4 -0.4
v -1.1 2.4 -0.4
v 0 2.4 -0.4
v 0.1 2.4 -0.4
v 1.1 2.4 -0.4
v 1.3 2.4 -0.4
v -1.1 2.4 -0.5
v -1 2.4 -0.5
v 0.1 2.4 -0.5
v 0.2 2.4 -0.5
v 0.3 2.4 -0.5
v 0.9 2.4 -0.5
v 1 2.4 -0.5
v 1.1 2.4 -0.5
v -0.3 2.4 -0.6
v 0 2.4 -0.6
v 0.2 2.4 -0.6
v 0.3 2.4 -0.6
v 0.9 2.4 -0.6
v 1 2.4 -0.6
v 1.3 2.4 -0.6
v -1 2.5 0.8
v -0.8 2.5 0.8
v -0.5 2.5 0.8
v 1.5 2.5 0.8
v -1.1 2.5 0.7
v -1 2.5 0.7
v -0.9 2.5 0.7
v -0.8 2.5 0.7
v -0.7 2.5 0.7
v -0.6 2.5 0.7
v -0.5 2.5 0.7
v -0.4 2.5 0.7
v 0.3 2.5 0.7
v 0.9 2.5 0.7
v -1.2 2.5 0.6
v -1.1 2.5 0.6
v -1 2.5 0.6
v -0.9 2.5 0.6
v -0.8 2.5 0.6
v -0.7 2.5 0.6
v -0.6 2.5 0.6
v -0.5 2.5 0.6
v -0.4 2.5 0.6
v -0.3 2.5 0.6
v 0.2 2.5 0.6
v 0.3 2.5 0.6
v 0.9 2.5 0.6
v 1 2.5 0.6
v 1.3 2.5 0.6
v -1.3 2.5 0.5
v -1.2 2.5 0.5
v -1.1 2.5 0.5
v -1 2.5 0.5
v -0.9 2.5 0.5
v -0.8 2.5 0.5
v -0.5 2.5 0.5
v -0.4 2.5 0.5
v 0.1 2.5 0.5
v 0.2 2.5 0.5
v 0.3 2.5 0.5
v 0.9 2.5 0.5
v 1 2.5 0.5
v 1.1 2.5 0.5
v -1.4 2.5 0.4
v -1.3 2.5 0.4
v -1.2 2.5 0.4
v -1.1 2.5 0.4
v -0.9 2.5 0.4
v -0.8 2.5 0.4
v -0.5 2.5 0.4
v -0.4 2.5 0.4
v -1.5 2.5 0.3
v -1.4 2.5 0.3
v -1.3 2.5 0.3
v -1.2 2.5 0.3
v -1 2.5 0.3
v -0.9 2.5 0.3
v -0.8 2.5 0.3
v -0.7 2.5 0.3
v -0.6 2.5 0.3
v -0.5 2.5 0.3
v -0.4 2.5 0.3
v -0.3 2.5 0.3
v -1.6 2.5 0.2
v -1.5 2.5 0.2
v -1.4 2.5 0.2
v -1.3 2.5 0.2
v -0.9 2.5 0.2
v -0.8 2.5 0.2
v -0.7 2.5 0.2
v -0.6 2.5 0.2
v -0.5 2.5 0.2
v -0.4 2.5 0.2
v -1.5 2.5 0.1
v -1.4 2.5 0.1
v -0.8 2.5 0.1
v -0.5 2.5 0.1
v -1.5 2.5 -0.1
v -1.4 2.5 -0.1
v -0.8 2.5 -0.1
v -0.5 2.5 -0.1
v -1.6 2.5 -0.2
v -1.5 2.5 -0.2
v -1.4 2.5 -0.2
v -1.3 2.5 -0.2
v -0.9 2.5 -0.2
v -0.8 2.5 -0.2
v -0.7 2.5 -0.2
v -0.6 2.5 -0.2
v -0.5 2.5 -0.2
v -0.4 2.5 -0.2
v -1.5 2.5 -0.3
v -1.4 2.5 -0.3
v -1.3 2.5 -0.3
v -1.2 2.5 -0.3
v -1 2.5 -0.3
v -0.9 2.5 -0.3
v -0.8 2.5 -0.3
v -0.7 2.5 -0.3
v -0.6 2.5 -0.3
v -0.5 2.5 -0.3
v -0.4 2.5 -0.3
v -0.3 2.5 -0.3
v -1.4 2.5 -0.4
v -1.3 2.5 -0.4
v -1.2 2.5 -0.4
v -1.1 2.5 -0.4
v -0.9 2.5 -0.4
v -0.8 2.5 -0.4
v -0.5 2.5 -0.4
v -0.4 2.5 -0.4
v -1.3 2.5 -0.5
v -1.2 2.5 -0.5
v -1.1 2.5 -0.5
v -1 2.5 -0.5
v -0.9 2.5 -0.5
v -0.8 2.5 -0.5
v -0.5 2.5 -0.5
v -0.4 2.5 -0.5
v 0.1 2.5 -0.5
v 0.2 2.5 -0.5
v 0.3 2.5 -0.5
v 0.9 2.5 -0.5
v 1 2.5 -0.5
v 1.1 2.5 -0.5
v -1.2 2.5 -0.6
v -1.1 2.5 -0.6
v -1 2.5 -0.6
v -0.9 2.5 -0.6
v -0.8 2.5 -0.6
v -0.7 2.5 -0.6
v -0.6 2.5 -0.6
v -0.5 2.5 -0.6
v -0.4 2.5 -0.6
v -0.3 2.5 -0.6
v 0.2 2.5 -0.6
v 0.3 2.5 -0.6
v 0.9 2.5 -0.6
v 1 2.5 -0.6
v 1.3 2.5 -0.6
v -1.1 2.5 -0.7
v -1 2.5 -0.7
v -0.9 2.5 -0.7
v -0.8 2.5 -0.7
v -0.7 2.5 -0.7
v -0.6 2.5 -0.7
v -0.5 2.5 -0.7
v -0.4 2.5 -0.7
v 0.3 2.5 -0.7
v 0.9 2.5 -0.7
v -1 2.5 -0.8
v -0.8 2.5 -0.8
v -0.5 2.5 -0.8
v 1.5 2.5 -0.8

# faces
f 3/11/1 2/11/1 1/11/1
f 4/11/1 2/11/1 3/11/1
f 8/1/1 6/1/1 5/1/1
f 9/1/1 6/1/1 8/1/1
f 11/2/1 8/2/1 7/2/1
f 11/2/1 10/2/1 9/2/1
f 11/2/1 9/2/1 8/2/1
f 12/2/1 10/2/1 11/2/1
f 17/11/1 14/11/1 13/11/1
f 18/11/1 14/11/1 17/11/1
f 19/11/1 16/11/1 15/11/1
f 20/11/1 16/11/1 19/11/1
f 24/1/1 22/1/1 21/1/1
f 25/1/1 22/1/1 24/1/1
f 28/1/1 24/1/1 23/1/1
f 29/1/1 24/1/1 28/1/1
f 30/1/1 26/1/1 25/1/1
f 31/1/1 26/1/1 30/1/1
f 33/2/1 28/2/1 27/2/1
f 34/2/1 28/2/1 33/2/1
f 35/2/1 32/2/1 31/2/1
f 36/2/1 32/2/1 35/2/1
f 41/11/1 38/11/1 37/11/1
f 42/11/1 38/11/1 41/11/1
f 45/11/1 40/11/1 39/11/1
f 46/11/1 40/11/1 45/11/1
f 48/3/1 44/3/1 43/3/1
f 49/3/1 44/3/1 48/3/1
f 52/1/1 48/1/1 47/1/1
f 53/1/1 48/1/1 52/1/1
f 54/1/1 50/1/1 49/1/1
f 55/1/1 50/1/1 54/1/1
f 58/1/1 52/1/1 51/1/1
f 59/1/1 52/1/1 58/1/1
f 60/1/1 56/1/1 55/1/1
f 61/1/1 56/1/1 60/1/1
f 63/2/1 58/2/1 57/2/1
f 64/2/1 58/2/1 63/2/1
f 65/2/1 62/2/1 61/2/1
f 66/2/1 62/2/1 65/2/1
f 71/11/1 68/11/1 67/11/1
f 72/11/1 68/11/1 71/11/1
f 77/11/1 70/11/1 69/11/1
f 78/11/1 70/11/1 77/11/1
f 80/3/1 74/3/1 73/3/1
f 81/3/1 74/3/1 80/3/1
f 82/3/1 76/3/1 75/3/1
f 83/3/1 76/3/1 82/3/1
f 86/1/1 80/1/1 79/1/1
f 87/1/1 80/1/1 86/1/1
f 88/1/1 84/1/1 83/1/1
f 89/1/1 84/1/1 88/1/1
f 92/1/1 86/1/1 85/1/1
f 93/1/1 86/1/1 92/1/1
f 94/1/1 90/1/1 89/1/1
f 95/1/1 90/1/1 94/1/1
f 97/2/1 92/2/1 91/2/1
f 98/2/1 92/2/1 97/2/1
f 99/2/1 96/2/1 95/2/1
f 100/2/1 96/2/1 99/2/1
f 105/11/1 102/11/1 101/11/1
f 106/11/1 102/11/1 105/11/1
f 111/11/1 104/11/1 103/11/1
f 112/11/1 104/11/1 111/11/1
f 114/3/1 108/3/1 107/3/1
f 115/3/1 108/3/1 114/3/1
f 116/3/1 110/3/1 109/3/1
f 117/3/1 110/3/1 116/3/1
f 120/1/1 114/1/1 113/1/1
f 121/1/1 114/1/1 120/1/1
f 122/1/1 118/1/1 117/1/1
f 123/1/1 118/1/1 122/1/1
f 126/1/1 120/1/1 119/1/1
f 127/1/1 120/1/1 126/1/1
f 128/1/1 124/1/1 123/1/1
f 129/1/1 124/1/1 128/1/1
f 131/2/1 126/2/1 125/2/1
f 132/2/1 126/2/1 131/2/1
f 133/2/1 130/2/1 129/2/1
f 134/2/1 130/2/1 133/2/1
f 139/11/1 136/11/1 135/11/1
f 140/11/1 136/11/1 139/11/1
f 145/11/1 138/11/1 137/11/1
f 146/11/1 138/11/1 145/11/1
f 148/3/1 142/3/1 141/3/1
f 149/3/1 142/3/1 148/3/1
f 150/3/1 144/3/1 143/3/1
f 151/3/1 144/3/1 150/3/1
f 154/1/1 148/1/1 147/1/1
f 155/1/1 148/1/1 154/1/1
f 156/1/1 152/1/1 151/1/1
f 157/1/1 152/1/1 156/1/1
f 160/1/1 154/1/1 153/1/1
f 161/1/1 154/1/1 160/1/1
f 162/1/1 158/1/1 157/1/1
f 163/1/1 158/1/1 162/1/1
f 165/2/1 160/2/1 159/2/1
f 166/2/1 160/2/1 165/2/1
f 167/2/1 164/2/1 163/2/1
f 168/2/1 164/2/1 167/2/1
f 173/11/1 170/11/1 169/11/1
f 174/11/1 170/11/1 173/11/1
f 179/11/1 172/11/1 171/11/1
f 180/11/1 172/11/1 179/11/1
f 182/3/1 176/3/1 175/3/1
f 183/3/1 176/3/1 182/3/1
f 184/3/1 178/3/1 177/3/1
f 185/3/1 178/3/1 184/3/1
f 188/1/1 182/1/1 181/1/1
f 189/1/1 182/1/1 188/1/1
f 190/1/1 186/1/1 185/1/1
f 191/1/1 186/1/1 190/1/1
f 194/1/1 188/1/1 187/1/1
f 195/1/1 188/1/1 194/1/1
f 200/1/1 192/1/1 191/1/1
f 201/1/1 192/1/1 200/1/1
f 203/2/1 194/2/1 193/2/1
f 204/2/1 194/2/1 203/2/1
f 205/7/1 197/7/1 196/7/1
f 206/7/1 197/7/1 205/7/1
f 207/7/1 199/7/1 198/7/1
f 208/7/1 199/7/1 207/7/1
f 209/2/1 202/2/1 201/2/1
f 210/2/1 202/2/1 209/2/1
f 216/3/1 212/3/1 211/3/1
f 217/3/1 212/3/1 216/3/1
f 218/3/1 214/3/1 213/3/1
f 219/3/1 214/3/1 218/3/1
f 222/1/1 216/1/1 215/1/1
f 223/1/1 216/1/1 222/1/1
f 224/1/1 220/1/1 219/1/1
f 225/1/1 220/1/1 224/1/1
f 227/1/1 222/1/1 221/1/1
f 228/1/1 222/1/1 227/1/1
f 233/1/1 226/1/1 225/1/1
f 234/1/1 226/1/1 233/1/1
f 235/7/1 230/7/1 229/7/1
f 236/7/1 230/7/1 235/7/1
f 237/7/1 232/7/1 231/7/1
f 238/7/1 232/7/1 237/7/1
f 243/1/1 240/1/1 239/1/1
f 244/1/1 240/1/1 243/1/1
f 245/1/1 242/1/1 241/1/1
f 246/1/1 242/1/1 245/1/1
f 251/7/1 248/7/1 247/7/1
f 252/7/1 248/7/1 251/7/1
f 253/7/1 250/7/1 249/7/1
f 254/7/1 250/7/1 253/7/1
f 259/3/1 256/3/1 255/3/1
f 260/3/1 256/3/1 259/3/1
f 261/3/1 258/3/1 257/3/1
f 262/3/1 258/3/1 261/3/1
f 267/6/1 264/6/1 263/6/1
f 267/6/1 266/6/1 265/6/1
f 267/6/1 265/6/1 264/6/1
f 268/6/1 266/6/1 267/6/1
f 273/6/1 270/6/1 269/6/1
f 274/6/1 270/6/1 273/6/1
f 275/6/1 272/6/1 271/6/1
f 276/6/1 272/6/1 275/6/1
f 281/6/1 278/6/1 277/6/1
f 282/6/1 278/6/1 281/6/1
f 283/6/1 280/6/1 279/6/1
f 284/6/1 280/6/1 283/6/1
f 287/6/1 286/6/1 285/6/1
f 288/6/1 286/6/1 287/6/1
f 293/2/1 290/2/1 289/2/1
f 293/2/1 292/2/1 291/2/1
f 293/2/1 291/2/1 290/2/1
f 294/2/1 292/2/1 293/2/1
f 295/2/2 296/2/2 297/2/2
f 297/2/2 296/2/2 298/2/2
f 299/2/2 300/2/2 303/2/2
f 303/2/2 300/2/2 304/2/2
f 301/2/2 302/2/2 305/2/2
f 305/2/2 302/2/2 306/2/2
f 307/2/2 308/2/2 311/2/2
f 311/2/2 308/2/2 312/2/2
f 309/2/2 310/2/2 313/2/2
f 313/2/2 310/2/2 314/2/2
f 315/2/2 316/2/2 319/2/2
f 319/2/2 316/2/2 320/2/2
f 317/2/2 318/2/2 321/2/2
f 321/2/2 318/2/2 322/2/2
f 323/2/2 324/2/2 327/2/2
f 327/2/2 324/2/2 328/2/2
f 325/2/2 326/2/2 329/2/2
f 329/2/2 326/2/2 330/2/2
f 331/7/2 332/7/2 335/7/2
f 335/7/2 332/7/2 336/7/2
f 333/7/2 334/7/2 337/7/2
f 337/7/2 334/7/2 338/7/2
f 339/7/2 340/7/2 343/7/2
f 343/7/2 340/7/2 344/7/2
f 341/7/2 342/7/2 345/7/2
f 345/7/2 342/7/2 346/7/2
f 347/7/2 348/7/2 351/7/2
f 351/7/2 348/7/2 352/7/2
f 349/7/2 350/7/2 353/7/2
f 353/7/2 350/7/2 354/7/2
f 355/6/2 356/6/2 357/6/2
f 357/6/2 356/6/2 358/6/2
f 359/6/2 360/6/2 363/6/2
f 363/6/2 360/6/2 364/6/2
f 361/6/2 362/6/2 365/6/2
f 365/6/2 362/6/2 366/6/2
f 367/6/2 368/6/2 371/6/2
f 371/6/2 368/6/2 372/6/2
f 369/6/2 370/6/2 373/6/2
f 373/6/2 370/6/2 374/6/2
f 375/6/2 376/6/2 379/6/2
f 377/6/2 378/6/2 379/6/2
f 376/6/2 377/6/2 379/6/2
f 379/6/2 378/6/2 380/6/2
f 381/11/2 382/11/2 383/11/2
f 383/11/2 382/11/2 384/11/2
f 384/11/2 382/11/2 385/11/2
f 385/11/2 382/11/2 386/11/2
f 384/3/2 385/3/2 388/3/2
f 388/3/2 385/3/2 389/3/2
f 387/1/2 388/1/2 391/1/2
f 389/1/2 390/1/2 391/1/2
f 388/1/2 389/1/2 391/1/2
f 391/1/2 390/1/2 392/1/2
f 391/2/2 392/2/2 393/2/2
f 393/2/2 392/2/2 394/2/2
f 400/2/3 398/2/3 397/2/3
f 402/1/3 400/1/3 399/1/3
f 403/2/3 398/2/3 400/2/3
f 403/1/3 400/1/3 402/1/3
f 404/2/3 398/2/3 403/2/3
f 405/1/3 402/1/3 401/1/3
f 405/7/3 403/7/3 402/7/3
f 405/7/3 404/7/3 403/7/3
f 406/7/3 404/7/3 405/7/3
f 407/7/3 404/7/3 406/7/3
f 408/11/3 396/11/3 395/11/3
f 409/11/3 396/11/3 408/11/3
f 410/1/3 405/1/3 401/1/3
f 410/1/3 406/1/3 405/1/3
f 411/2/3 407/2/3 406/2/3
f 411/1/3 406/1/3 410/1/3
f 412/2/3 407/2/3 411/2/3
f 417/11/3 414/11/3 413/11/3
f 418/11/3 414/11/3 417/11/3
f 420/2/3 416/2/3 415/2/3
f 421/2/3 416/2/3 420/2/3
f 423/1/3 420/1/3 419/1/3
f 424/1/3 420/1/3 423/1/3
f 425/1/3 423/1/3 422/1/3
f 426/1/3 423/1/3 425/1/3
f 429/3/3 428/3/3 427/3/3
f 430/3/3 428/3/3 429/3/3
f 435/11/3 432/11/3 431/11/3
f 436/11/3 432/11/3 435/11/3
f 438/2/3 434/2/3 433/2/3
f 439/2/3 434/2/3 438/2/3
f 441/1/3 438/1/3 437/1/3
f 442/1/3 438/1/3 441/1/3
f 444/1/3 441/1/3 440/1/3
f 445/1/3 441/1/3 444/1/3
f 446/3/3 444/3/3 443/3/3
f 447/3/3 444/3/3 446/3/3
f 452/11/3 449/11/3 448/11/3
f 453/11/3 449/11/3 452/11/3
f 455/2/3 451/2/3 450/2/3
f 456/2/3 451/2/3 455/2/3
f 458/1/3 455/1/3 454/1/3
f 459/1/3 455/1/3 458/1/3
f 461/1/3 458/1/3 457/1/3
f 462/1/3 458/1/3 461/1/3
f 463/3/3 461/3/3 460/3/3
f 464/3/3 461/3/3 463/3/3
f 467/6/3 466/6/3 465/6/3
f 468/6/3 466/6/3 467/6/3
f 471/6/3 470/6/3 469/6/3
f 472/6/3 470/6/3 471/6/3
f 477/11/3 474/11/3 473/11/3
f 478/11/3 474/11/3 477/11/3
f 480/2/3 476/2/3 475/2/3
f 481/2/3 476/2/3 480/2/3
f 483/1/3 480/1/3 479/1/3
f 484/1/3 480/1/3 483/1/3
f 486/1/3 483/1/3 482/1/3
f 487/1/3 483/1/3 486/1/3
f 488/3/3 486/3/3 485/3/3
f 489/3/3 486/3/3 488/3/3
f 494/11/3 491/11/3 490/11/3
f 495/11/3 491/11/3 494/11/3
f 497/2/3 493/2/3 492/2/3
f 498/2/3 493/2/3 497/2/3
f 500/1/3 497/1/3 496/1/3
f 501/1/3 497/1/3 500/1/3
f 503/1/3 500/1/3 499/1/3
f 504/1/3 500/1/3 503/1/3
f 505/3/3 503/3/3 502/3/3
f 506/3/3 503/3/3 505/3/3
f 511/11/3 508/11/3 507/11/3
f 512/11/3 508/11/3 511/11/3
f 514/2/3 510/2/3 509/2/3
f 515/2/3 510/2/3 514/2/3
f 517/1/3 514/1/3 513/1/3
f 518/1/3 514/1/3 517/1/3
f 520/1/3 517/1/3 516/1/3
f 521/1/3 517/1/3 520/1/3
f 522/3/3 520/3/3 519/3/3
f 523/3/3 520/3/3 522/3/3
f 527/1/3 525/1/3 524/1/3
f 528/1/3 525/1/3 527/1/3
f 530/1/3 527/1/3 526/1/3
f 531/1/3 527/1/3 530/1/3
f 532/3/3 530/3/3 529/3/3
f 533/3/3 530/3/3 532/3/3
f 536/2/3 535/2/3 534/2/3
f 537/2/3 535/2/3 536/2/3
f 540/7/3 539/7/3 538/7/3
f 541/7/3 539/7/3 540/7/3
f 544/2/3 543/2/3 542/2/3
f 545/2/3 543/2/3 544/2/3
f 548/7/3 547/7/3 546/7/3
f 549/7/3 547/7/3 548/7/3
f 552/7/3 551/7/3 550/7/3
f 553/7/3 551/7/3 552/7/3
f 556/2/3 555/2/3 554/2/3
f 557/2/3 555/2/3 556/2/3
f 560/7/3 559/7/3 558/7/3
f 561/7/3 559/7/3 560/7/3
f 564/7/3 563/7/3 562/7/3
f 565/7/3 563/7/3 564/7/3
f 568/2/3 567/2/3 566/2/3
f 569/2/3 567/2/3 568/2/3
f 572/2/3 571/2/3 570/2/3
f 573/2/3 571/2/3 572/2/3
f 576/6/3 575/6/3 574/6/3
f 577/6/3 575/6/3 576/6/3
f 580/6/3 579/6/3 578/6/3
f 581/6/3 579/6/3 580/6/3
f 584/2/3 583/2/3 582/2/3
f 585/2/3 583/2/3 584/2/3
f 586/2/3 583/2/3 585/2/3
f 589/6/3 588/6/3 587/6/3
f 590/6/3 588/6/3 589/6/3
f 593/2/3 592/2/3 591/2/3
f 594/2/3 592/2/3 593/2/3
f 595/2/4 596/2/4 597/2/4
f 597/2/4 596/2/4 598/2/4
f 598/2/4 596/2/4 599/2/4
f 600/6/4 601/6/4 602/6/4
f 602/6/4 601/6/4 603/6/4
f 604/2/4 605/2/4 606/2/4
f 606/2/4 605/2/4 607/2/4
f 608/2/4 609/2/4 610/2/4
f 610/2/4 609/2/4 611/2/4
f 612/6/4 613/6/4 614/6/4
f 614/6/4 613/6/4 615/6/4
f 616/6/4 617/6/4 618/6/4
f 618/6/4 617/6/4 619/6/4
f 620/2/4 621/2/4 622/2/4
f 622/2/4 621/2/4 623/2/4
f 624/2/4 625/2/4 626/2/4
f 626/2/4 625/2/4 627/2/4
f 628/7/4 629/7/4 630/7/4
f 630/7/4 629/7/4 631/7/4
f 632/7/4 633/7/4 634/7/4
f 634/7/4 633/7/4 635/7/4
f 636/2/4 637/2/4 638/2/4
f 638/2/4 637/2/4 639/2/4
f 640/7/4 641/7/4 642/7/4
f 642/7/4 641/7/4 643/7/4
f 644/7/4 645/7/4 646/7/4
f 646/7/4 645/7/4 647/7/4
f 648/2/4 649/2/4 650/2/4
f 650/2/4 649/2/4 651/2/4
f 652/7/4 653/7/4 654/7/4
f 654/7/4 653/7/4 655/7/4
f 656/1/4 657/1/4 659/1/4
f 659/1/4 657/1/4 660/1/4
f 658/1/4 659/1/4 662/1/4
f 662/1/4 659/1/4 663/1/4
f 661/3/4 662/3/4 664/3/4
f 664/3/4 662/3/4 665/3/4
f 666/11/4 667/11/4 670/11/4
f 670/11/4 667/11/4 671/11/4
f 668/2/4 669/2/4 673/2/4
f 673/2/4 669/2/4 674/2/4
f 672/1/4 673/1/4 676/1/4
f 676/1/4 673/1/4 677/1/4
f 675/1/4 676/1/4 679/1/4
f 679/1/4 676/1/4 680/1/4
f 678/3/4 679/3/4 681/3/4
f 681/3/4 679/3/4 682/3/4
f 683/11/4 684/11/4 687/11/4
f 687/11/4 684/11/4 688/11/4
f 685/2/4 686/2/4 690/2/4
f 690/2/4 686/2/4 691/2/4
f 689/1/4 690/1/4 693/1/4
f 693/1/4 690/1/4 694/1/4
f 692/1/4 693/1/4 696/1/4
f 696/1/4 693/1/4 697/1/4
f 695/3/4 696/3/4 698/3/4
f 698/3/4 696/3/4 699/3/4
f 700/11/4 701/11/4 704/11/4
f 704/11/4 701/11/4 705/11/4
f 702/2/4 703/2/4 707/2/4
f 707/2/4 703/2/4 708/2/4
f 706/1/4 707/1/4 710/1/4
f 710/1/4 707/1/4 711/1/4
f 709/1/4 710/1/4 713/1/4
f 713/1/4 710/1/4 714/1/4
f 712/3/4 713/3/4 715/3/4
f 715/3/4 713/3/4 716/3/4
f 717/11/4 718/11/4 721/11/4
f 721/11/4 718/11/4 722/11/4
f 719/2/4 720/2/4 724/2/4
f 724/2/4 720/2/4 725/2/4
f 723/1/4 724/1/4 727/1/4
f 727/1/4 724/1/4 728/1/4
f 726/1/4 727/1/4 730/1/4
f 730/1/4 727/1/4 731/1/4
f 729/3/4 730/3/4 732/3/4
f 732/3/4 730/3/4 733/3/4
f 734/6/4 735/6/4 736/6/4
f 736/6/4 735/6/4 737/6/4
f 738/6/4 739/6/4 740/6/4
f 740/6/4 739/6/4 741/6/4
f 742/11/4 743/11/4 746/11/4
f 746/11/4 743/11/4 747/11/4
f 744/2/4 745/2/4 749/2/4
f 749/2/4 745/2/4 750/2/4
f 748/1/4 749/1/4 752/1/4
f 752/1/4 749/1/4 753/1/4
f 751/1/4 752/1/4 755/1/4
f 755/1/4 752/1/4 756/1/4
f 754/3/4 755/3/4 757/3/4
f 757/3/4 755/3/4 758/3/4
f 759/11/4 760/11/4 763/11/4
f 763/11/4 760/11/4 764/11/4
f 761/2/4 762/2/4 766/2/4
f 766/2/4 762/2/4 767/2/4
f 765/1/4 766/1/4 769/1/4
f 769/1/4 766/1/4 770/1/4
f 768/1/4 769/1/4 771/1/4
f 771/1/4 769/1/4 772/1/4
f 773/3/4 774/3/4 775/3/4
f 775/3/4 774/3/4 776/3/4
f 779/2/4 780/2/4 782/2/4
f 781/1/4 782/1/4 784/1/4
f 782/2/4 780/2/4 785/2/4
f 784/1/4 782/1/4 785/1/4
f 785/2/4 780/2/4 786/2/4
f 783/1/4 784/1/4 787/1/4
f 784/7/4 785/7/4 787/7/4
f 785/7/4 786/7/4 787/7/4
f 787/7/4 786/7/4 788/7/4
f 788/7/4 786/7/4 789/7/4
f 777/11/4 778/11/4 790/11/4
f 790/11/4 778/11/4 791/11/4
f 783/1/4 787/1/4 792/1/4
f 787/1/4 788/1/4 792/1/4
f 788/2/4 789/2/4 793/2/4
f 792/1/4 788/1/4 793/1/4
f 793/2/4 789/2/4 794/2/4
f 798/11/5 796/11/5 795/11/5
f 800/11/5 798/11/5 797/11/5
f 802/11/5 800/11/5 799/11/5
f 804/11/5 802/11/5 801/11/5
f 806/11/5 804/11/5 803/11/5
f 808/11/5 806/11/5 805/11/5
f 809/11/5 808/11/5 807/11/5
f 810/11/5 806/11/5 808/11/5
f 810/11/5 808/11/5 809/11/5
f 811/11/5 806/11/5 810/11/5
f 812/11/5 804/11/5 806/11/5
f 812/11/5 806/11/5 811/11/5
f 813/11/5 804/11/5 812/11/5
f 814/11/5 802/11/5 804/11/5
f 814/11/5 804/11/5 813/11/5
f 815/11/5 802/11/5 814/11/5
f 816/11/5 800/11/5 802/11/5
f 816/11/5 802/11/5 815/11/5
f 817/11/5 800/11/5 816/11/5
f 818/11/5 798/11/5 800/11/5
f 818/11/5 800/11/5 817/11/5
f 819/11/5 798/11/5 818/11/5
f 820/11/5 796/11/5 798/11/5
f 820/11/5 798/11/5 819/11/5
f 821/11/5 796/11/5 820/11/5
f 822/11/5 796/11/5 821/11/5
f 826/1/5 824/1/5 823/1/5
f 827/1/5 824/1/5 826/1/5
f 828/1/5 824/1/5 827/1/5
f 830/1/5 826/1/5 825/1/5
f 830/1/5 827/1/5 826/1/5
f 831/1/5 827/1/5 830/1/5
f 833/1/5 830/1/5 829/1/5
f 834/1/5 830/1/5 833/1/5
f 836/1/5 833/1/5 832/1/5
f 837/1/5 833/1/5 836/1/5
f 839/1/5 836/1/5 835/1/5
f 840/1/5 836/1/5 839/1/5
f 842/1/5 839/1/5 838/1/5
f 843/1/5 839/1/5 842/1/5
f 845/1/5 842/1/5 841/1/5
f 846/1/5 842/1/5 845/1/5
f 847/1/5 845/1/5 844/1/5
f 848/1/5 845/1/5 847/1/5
f 850/1/5 849/1/5 848/1/5
f 851/1/5 849/1/5 850/1/5
f 853/1/5 852/1/5 851/1/5
f 854/1/5 852/1/5 853/1/5
f 856/1/5 855/1/5 854/1/5
f 857/1/5 855/1/5 856/1/5
f 859/1/5 858/1/5 857/1/5
f 860/1/5 858/1/5 859/1/5
f 862/1/5 861/1/5 860/1/5
f 863/1/5 861/1/5 862/1/5
f 865/1/5 864/1/5 863/1/5
f 866/1/5 864/1/5 865/1/5
f 867/1/5 864/1/5 866/1/5
f 869/1/5 867/1/5 866/1/5
f 869/1/5 868/1/5 867/1/5
f 870/1/5 868/1/5 869/1/5
f 874/1/5 872/1/5 871/1/5
f 875/1/5 872/1/5 874/1/5
f 877/1/5 874/1/5 873/1/5
f 878/1/5 874/1/5 877/1/5
f 880/1/5 877/1/5 876/1/5
f 881/1/5 877/1/5 880/1/5
f 883/1/5 880/1/5 879/1/5
f 884/1/5 880/1/5 883/1/5
f 886/1/5 883/1/5 882/1/5
f 887/1/5 883/1/5 886/1/5
f 889/1/5 886/1/5 885/1/5
f 890/1/5 886/1/5 889/1/5
f 892/1/5 889/1/5 888/1/5
f 893/1/5 889/1/5 892/1/5
f 894/1/5 892/1/5 891/1/5
f 895/1/5 892/1/5 894/1/5
f 897/1/5 896/1/5 895/1/5
f 898/1/5 896/1/5 897/1/5
f 900/1/5 899/1/5 898/1/5
f 901/1/5 899/1/5 900/1/5
f 903/1/5 902/1/5 901/1/5
f 904/1/5 902/1/5 903/1/5
f 906/1/5 905/1/5 904/1/5
f 907/1/5 905/1/5 906/1/5
f 909/1/5 908/1/5 907/1/5
f 910/1/5 908/1/5 909/1/5
f 912/1/5 911/1/5 910/1/5
f 913/1/5 911/1/5 912/1/5
f 915/1/5 914/1/5 913/1/5
f 916/1/5 914/1/5 915/1/5
f 920/2/5 918/2/5 917/2/5
f 921/2/5 918/2/5 920/2/5
f 923/2/5 920/2/5 919/2/5
f 924/2/5 920/2/5 923/2/5
f 926/2/5 923/2/5 922/2/5
f 927/2/5 923/2/5 926/2/5
f 929/2/5 926/2/5 925/2/5
f 930/2/5 926/2/5 929/2/5
f 932/2/5 929/2/5 928/2/5
f 933/2/5 929/2/5 932/2/5
f 935/2/5 932/2/5 931/2/5
f 936/2/5 932/2/5 935/2/5
f 937/2/5 935/2/5 934/2/5
f 938/2/5 935/2/5 937/2/5
f 941/2/5 940/2/5 939/2/5
f 942/2/5 940/2/5 941/2/5
f 944/2/5 943/2/5 942/2/5
f 945/2/5 943/2/5 944/2/5
f 947/2/5 946/2/5 945/2/5
f 948/2/5 946/2/5 947/2/5
f 950/2/5 949/2/5 948/2/5
f 951/2/5 949/2/5 950/2/5
f 953/2/5 952/2/5 951/2/5
f 954/2/5 952/2/5 953/2/5
f 956/2/5 955/2/5 954/2/5
f 957/2/5 955/2/5 956/2/5
f 959/2/5 958/2/5 957/2/5
f 960/2/5 958/2/5 959/2/5
f 961/11/6 962/11/6 964/11/6
f 964/11/6 962/11/6 965/11/6
f 965/11/6 962/11/6 966/11/6
f 963/11/6 964/11/6 968/11/6
f 964/11/6 965/11/6 968/11/6
f 968/11/6 965/11/6 969/11/6
f 969/11/6 965/11/6 970/11/6
f 967/11/6 968/11/6 972/11/6
f 968/11/6 969/11/6 972/11/6
f 972/11/6 969/11/6 973/11/6
f 973/11/6 969/11/6 974/11/6
f 971/11/6 972/11/6 976/11/6
f 972/11/6 973/11/6 976/11/6
f 976/11/6 973/11/6 977/11/6
f 977/11/6 973/11/6 978/11/6
f 975/11/6 976/11/6 980/11/6
f 976/11/6 977/11/6 980/11/6
f 980/11/6 977/11/6 981/11/6
f 981/11/6 977/11/6 982/11/6
f 979/11/6 980/11/6 984/11/6
f 980/11/6 981/11/6 984/11/6
f 984/11/6 981/11/6 985/11/6
f 985/11/6 981/11/6 986/11/6
f 983/11/6 984/11/6 987/11/6
f 984/11/6 985/11/6 987/11/6
f 987/11/6 985/11/6 988/11/6
f 983/11/6 987/11/6 989/11/6
f 983/11/6 989/11/6 991/11/6
f 989/11/6 990/11/6 991/11/6
f 991/11/6 990/11/6 992/11/6
f 992/11/6 990/11/6 993/11/6
f 992/11/6 993/11/6 995/11/6
f 993/11/6 994/11/6 995/11/6
f 995/11/6 994/11/6 996/11/6
f 996/11/6 994/11/6 997/11/6
f 996/11/6 997/11/6 999/11/6
f 997/11/6 998/11/6 999/11/6
f 999/11/6 998/11/6 1000/11/6
f 1000/11/6 998/11/6 1001/11/6
f 1000/11/6 1001/11/6 1003/11/6
f 1001/11/6 1002/11/6 1003/11/6
f 1003/11/6 1002/11/6 1004/11/6
f 1004/11/6 1002/11/6 1005/11/6
f 1004/11/6 1005/11/6 1007/11/6
f 1005/11/6 1006/11/6 1007/11/6
f 1007/11/6 1006/11/6 1008/11/6
f 1008/11/6 1006/11/6 1009/11/6
f 1008/11/6 1009/11/6 1011/11/6
f 1009/11/6 1010/11/6 1011/11/6
f 1011/11/6 1010/11/6 1012/11/6
f 1012/11/6 1010/11/6 1013/11/6
f 1012/11/6 1013/11/6 1015/11/6
f 1013/11/6 1014/11/6 1015/11/6
f 1015/11/6 1014/11/6 1016/11/6
f 1018/1/6 1019/1/6 1026/1/6
f 1026/1/6 1019/1/6 1027/1/6
f 1020/8/6 1021/8/6 1028/8/6
f 1028/8/6 1021/8/6 1029/8/6
f 1022/1/6 1023/1/6 1030/1/6
f 1030/1/6 1023/1/6 1031/1/6
f 1024/1/6 1025/1/6 1033/1/6
f 1017/2/6 1018/2/6 1034/2/6
f 1018/1/6 1026/1/6 1034/1/6
f 1034/1/6 1026/1/6 1035/1/6
f 1031/1/6 1023/1/6 1036/1/6
f 1036/1/6 1023/1/6 1037/1/6
f 1032/1/6 1033/1/6 1039/1/6
f 1033/1/6 1025/1/6 1040/1/6
f 1039/1/6 1033/1/6 1040/1/6
f 1017/2/6 1034/2/6 1043/2/6
f 1038/1/6 1039/1/6 1045/1/6
f 1040/1/6 1041/1/6 1045/1/6
f 1039/1/6 1040/1/6 1045/1/6
f 1045/1/6 1041/1/6 1046/1/6
f 1046/1/6 1041/1/6 1047/1/6
f 1042/3/6 1043/3/6 1050/3/6
f 1044/1/6 1045/1/6 1052/1/6
f 1045/1/6 1046/1/6 1052/1/6
f 1052/1/6 1046/1/6 1053/1/6
f 1047/3/6 1048/3/6 1054/3/6
f 1053/1/6 1046/1/6 1054/1/6
f 1046/3/6 1047/3/6 1054/3/6
f 1054/3/6 1048/3/6 1055/3/6
f 1049/3/6 1050/3/6 1056/3/6
f 1052/1/6 1053/1/6 1057/1/6
f 1051/1/6 1052/1/6 1057/1/6
f 1057/1/6 1053/1/6 1058/1/6
f 1055/3/6 1056/3/6 1059/3/6
f 1058/1/6 1053/1/6 1059/1/6
f 1054/3/6 1055/3/6 1059/3/6
f 1053/3/6 1054/3/6 1059/3/6
f 1059/3/6 1056/3/6 1060/3/6
f 1060/3/6 1056/3/6 1061/3/6
f 1056/3/6 1050/3/6 1062/3/6
f 1061/3/6 1056/3/6 1062/3/6
f 1058/1/6 1059/1/6 1063/1/6
f 1059/1/6 1060/1/6 1063/1/6
f 1063/1/6 1060/1/6 1064/1/6
f 1060/3/6 1061/3/6 1065/3/6
f 1064/1/6 1060/1/6 1065/1/6
f 1065/3/6 1061/3/6 1066/3/6
f 1066/3/6 1061/3/6 1067/3/6
f 1062/3/6 1050/3/6 1068/3/6
f 1050/3/6 1043/3/6 1069/3/6
f 1068/3/6 1050/3/6 1069/3/6
f 1065/1/6 1066/1/6 1070/1/6
f 1064/1/6 1065/1/6 1070/1/6
f 1070/1/6 1066/1/6 1071/1/6
f 1071/1/6 1066/1/6 1072/1/6
f 1072/1/6 1066/1/6 1073/1/6
f 1069/3/6 1043/3/6 1074/3/6
f 1043/2/6 1034/2/6 1075/2/6
f 1074/3/6 1043/3/6 1075/3/6
f 1071/1/6 1072/1/6 1076/1/6
f 1076/1/6 1072/1/6 1077/1/6
f 1034/3/6 1035/3/6 1078/3/6
f 1075/2/6 1034/2/6 1078/2/6
f 1078/3/6 1035/3/6 1079/3/6
f 1036/3/6 1037/3/6 1080/3/6
f 1080/3/6 1037/3/6 1081/3/6
f 1077/1/6 1072/1/6 1082/1/6
f 1082/1/6 1072/1/6 1083/1/6
f 1078/1/6 1079/1/6 1084/1/6
f 1029/8/6 1030/8/6 1085/8/6
f 1028/8/6 1029/8/6 1085/8/6
f 1027/8/6 1028/8/6 1085/8/6
f 1085/8/6 1030/8/6 1086/8/6
f 1086/8/6 1030/8/6 1087/8/6
f 1087/8/6 1030/8/6 1088/8/6
f 1080/1/6 1081/1/6 1089/1/6
f 1075/2/6 1078/2/6 1090/2/6
f 1078/1/6 1084/1/6 1091/1/6
f 1090/2/6 1078/2/6 1091/2/6
f 1084/1/6 1085/1/6 1091/1/6
f 1091/1/6 1085/1/6 1092/1/6
f 1086/8/6 1087/8/6 1093/8/6
f 1093/8/6 1087/8/6 1094/8/6
f 1088/1/6 1089/1/6 1095/1/6
f 1089/1/6 1081/1/6 1096/1/6
f 1095/1/6 1089/1/6 1096/1/6
f 1097/2/6 1098/2/6 1102/2/6
f 1102/2/6 1098/2/6 1103/2/6
f 1098/7/6 1099/7/6 1104/7/6
f 1103/2/6 1098/2/6 1104/2/6
f 1104/7/6 1099/7/6 1105/7/6
f 1105/7/6 1099/7/6 1106/7/6
f 1099/2/6 1100/2/6 1107/2/6
f 1106/7/6 1099/7/6 1107/7/6
f 1107/2/6 1100/2/6 1108/2/6
f 1108/2/6 1100/2/6 1109/2/6
f 1109/2/6 1100/2/6 1110/2/6
f 1102/2/6 1103/2/6 1112/2/6
f 1101/2/6 1102/2/6 1112/2/6
f 1112/2/6 1103/2/6 1113/2/6
f 1103/7/6 1104/7/6 1114/7/6
f 1113/2/6 1103/2/6 1114/2/6
f 1104/5/6 1105/5/6 1115/5/6
f 1114/7/6 1104/7/6 1115/7/6
f 1105/4/6 1106/4/6 1116/4/6
f 1115/5/6 1105/5/6 1116/5/6
f 1106/5/6 1107/5/6 1117/5/6
f 1116/4/6 1106/4/6 1117/4/6
f 1107/7/6 1108/7/6 1118/7/6
f 1117/5/6 1107/5/6 1118/5/6
f 1108/2/6 1109/2/6 1119/2/6
f 1118/7/6 1108/7/6 1119/7/6
f 1119/2/6 1109/2/6 1120/2/6
f 1120/2/6 1109/2/6 1121/2/6
f 1109/6/6 1110/6/6 1122/6/6
f 1121/2/6 1109/2/6 1122/2/6
f 1110/2/6 1100/2/6 1123/2/6
f 1122/6/6 1110/6/6 1123/6/6
f 1123/2/6 1100/2/6 1124/2/6
f 1124/2/6 1100/2/6 1125/2/6
f 1112/2/6 1113/2/6 1127/2/6
f 1111/2/6 1112/2/6 1127/2/6
f 1127/2/6 1113/2/6 1128/2/6
f 1113/7/6 1114/7/6 1129/7/6
f 1128/2/6 1113/2/6 1129/2/6
f 1114/5/6 1115/5/6 1130/5/6
f 1129/7/6 1114/7/6 1130/7/6
f 1115/9/6 1116/9/6 1131/9/6
f 1130/5/6 1115/5/6 1131/5/6
f 1116/9/6 1117/9/6 1131/9/6
f 1117/9/6 1118/9/6 1131/9/6
f 1118/5/6 1119/5/6 1132/5/6
f 1131/9/6 1118/9/6 1132/9/6
f 1119/7/6 1120/7/6 1133/7/6
f 1132/5/6 1119/5/6 1133/5/6
f 1121/6/6 1122/6/6 1135/6/6
f 1135/6/6 1122/6/6 1136/6/6
f 1123/6/6 1124/6/6 1137/6/6
f 1137/6/6 1124/6/6 1138/6/6
f 1127/2/6 1128/2/6 1141/2/6
f 1126/2/6 1127/2/6 1141/2/6
f 1141/2/6 1128/2/6 1142/2/6
f 1142/2/6 1128/2/6 1143/2/6
f 1129/7/6 1130/7/6 1144/7/6
f 1130/4/6 1131/4/6 1144/4/6
f 1131/9/6 1132/9/6 1145/9/6
f 1144/4/6 1131/4/6 1145/4/6
f 1132/4/6 1133/4/6 1146/4/6
f 1145/9/6 1132/9/6 1146/9/6
f 1133/7/6 1120/7/6 1147/7/6
f 1146/4/6 1133/4/6 1147/4/6
f 1141/2/6 1142/2/6 1149/2/6
f 1140/2/6 1141/2/6 1149/2/6
f 1149/2/6 1142/2/6 1150/2/6
f 1150/2/6 1142/2/6 1151/2/6
f 1129/7/6 1144/7/6 1152/7/6
f 1144/5/6 1145/5/6 1153/5/6
f 1152/7/6 1144/7/6 1153/7/6
f 1145/9/6 1146/9/6 1154/9/6
f 1153/5/6 1145/5/6 1154/5/6
f 1154/9/6 1146/9/6 1155/9/6
f 1155/9/6 1146/9/6 1156/9/6
f 1146/5/6 1147/5/6 1157/5/6
f 1156/9/6 1146/9/6 1157/9/6
f 1147/7/6 1120/7/6 1158/7/6
f 1157/5/6 1147/5/6 1158/5/6
f 1158/7/6 1120/7/6 1159/7/6
f 1148/2/6 1149/2/6 1161/2/6
f 1149/2/6 1150/2/6 1161/2/6
f 1161/2/6 1150/2/6 1162/2/6
f 1162/2/6 1150/2/6 1163/2/6
f 1153/7/6 1154/7/6 1164/7/6
f 1154/5/6 1155/5/6 1165/5/6
f 1164/7/6 1154/7/6 1165/7/6
f 1155/4/6 1156/4/6 1166/4/6
f 1165/5/6 1155/5/6 1166/5/6
f 1156/10/6 1157/10/6 1167/10/6
f 1166/4/6 1156/4/6 1167/4/6
f 1157/7/6 1158/7/6 1168/7/6
f 1167/10/6 1157/10/6 1168/10/6
f 1168/7/6 1158/7/6 1169/7/6
f 1160/2/6 1161/2/6 1170/2/6
f 1161/2/6 1162/2/6 1170/2/6
f 1170/2/6 1162/2/6 1171/2/6
f 1165/7/6 1166/7/6 1172/7/6
f 1166/7/6 1167/7/6 1172/7/6
f 1167/7/6 1168/7/6 1172/7/6
f 1172/7/6 1168/7/6 1173/7/6
f 1160/2/6 1170/2/6 1174/2/6
f 1160/2/6 1174/2/6 1178/2/6
f 1174/2/6 1175/2/6 1178/2/6
f 1178/2/6 1175/2/6 1179/2/6
f 1179/2/6 1175/2/6 1180/2/6
f 1176/7/6 1177/7/6 1183/7/6
f 1183/7/6 1177/7/6 1184/7/6
f 1184/7/6 1177/7/6 1185/7/6
f 1185/7/6 1177/7/6 1186/7/6
f 1180/2/6 1181/2/6 1188/2/6
f 1179/2/6 1180/2/6 1188/2/6
f 1188/2/6 1181/2/6 1189/2/6
f 1189/2/6 1181/2/6 1190/2/6
f 1182/7/6 1183/7/6 1193/7/6
f 1183/5/6 1184/5/6 1194/5/6
f 1193/7/6 1183/7/6 1194/7/6
f 1184/4/6 1185/4/6 1195/4/6
f 1194/5/6 1184/5/6 1195/5/6
f 1185/10/6 1186/10/6 1196/10/6
f 1195/4/6 1185/4/6 1196/4/6
f 1186/7/6 1187/7/6 1197/7/6
f 1196/10/6 1186/10/6 1197/10/6
f 1197/7/6 1187/7/6 1198/7/6
f 1190/2/6 1191/2/6 1200/2/6
f 1189/2/6 1190/2/6 1200/2/6
f 1200/2/6 1191/2/6 1201/2/6
f 1201/2/6 1191/2/6 1202/2/6
f 1193/5/6 1194/5/6 1204/5/6
f 1192/7/6 1193/7/6 1204/7/6
f 1194/9/6 1195/9/6 1205/9/6
f 1204/5/6 1194/5/6 1205/5/6
f 1195/9/6 1196/9/6 1205/9/6
f 1196/9/6 1197/9/6 1205/9/6
f 1197/5/6 1198/5/6 1206/5/6
f 1205/9/6 1197/9/6 1206/9/6
f 1198/7/6 1199/7/6 1207/7/6
f 1206/5/6 1198/5/6 1207/5/6
f 1202/2/6 1203/2/6 1208/2/6
f 1201/2/6 1202/2/6 1208/2/6
f 1208/2/6 1203/2/6 1209/2/6
f 1209/2/6 1203/2/6 1210/2/6
f 1192/7/6 1204/7/6 1211/7/6
f 1204/4/6 1205/4/6 1212/4/6
f 1211/7/6 1204/7/6 1212/7/6
f 1205/9/6 1206/9/6 1213/9/6
f 1212/4/6 1205/4/6 1213/4/6
f 1206/4/6 1207/4/6 1214/4/6
f 1213/9/6 1206/9/6 1214/9/6
f 1207/7/6 1199/7/6 1215/7/6
f 1214/4/6 1207/4/6 1215/4/6
f 1134/6/6 1135/6/6 1216/6/6
f 1216/6/6 1135/6/6 1217/6/6
f 1138/6/6 1139/6/6 1220/6/6
f 1220/6/6 1139/6/6 1221/6/6
f 1209/2/6 1210/2/6 1222/2/6
f 1210/2/6 1211/2/6 1222/2/6
f 1222/2/6 1211/2/6 1223/2/6
f 1211/7/6 1212/7/6 1224/7/6
f 1223/2/6 1211/2/6 1224/2/6
f 1212/5/6 1213/5/6 1225/5/6
f 1224/7/6 1212/7/6 1225/7/6
f 1213/9/6 1214/9/6 1226/9/6
f 1225/5/6 1213/5/6 1226/5/6
f 1226/9/6 1214/9/6 1227/9/6
f 1227/9/6 1214/9/6 1228/9/6
f 1214/5/6 1215/5/6 1229/5/6
f 1228/9/6 1214/9/6 1229/9/6
f 1215/7/6 1199/7/6 1230/7/6
f 1229/5/6 1215/5/6 1230/5/6
f 1230/7/6 1199/7/6 1231/7/6
f 1217/6/6 1218/6/6 1232/6/6
f 1232/6/6 1218/6/6 1233/6/6
f 1219/6/6 1220/6/6 1234/6/6
f 1234/6/6 1220/6/6 1235/6/6
f 1125/2/6 1100/2/6 1236/2/6
f 1224/2/6 1225/2/6 1237/2/6
f 1223/2/6 1224/2/6 1237/2/6
f 1237/2/6 1225/2/6 1238/2/6
f 1225/7/6 1226/7/6 1239/7/6
f 1238/2/6 1225/2/6 1239/2/6
f 1226/5/6 1227/5/6 1240/5/6
f 1239/7/6 1226/7/6 1240/7/6
f 1227/4/6 1228/4/6 1241/4/6
f 1240/5/6 1227/5/6 1241/5/6
f 1228/5/6 1229/5/6 1242/5/6
f 1241/4/6 1228/4/6 1242/4/6
f 1229/7/6 1230/7/6 1243/7/6
f 1242/5/6 1229/5/6 1243/5/6
f 1230/2/6 1231/2/6 1244/2/6
f 1243/7/6 1230/7/6 1244/7/6
f 1232/2/6 1233/2/6 1244/2/6
f 1231/2/6 1232/2/6 1244/2/6
f 1233/6/6 1234/6/6 1245/6/6
f 1244/2/6 1233/2/6 1245/2/6
f 1234/2/6 1235/2/6 1246/2/6
f 1245/6/6 1234/6/6 1246/6/6
f 1235/2/6 1236/2/6 1246/2/6
f 1239/2/6 1240/2/6 1247/2/6
f 1238/2/6 1239/2/6 1247/2/6
f 1242/7/6 1243/7/6 1248/7/6
f 1247/2/6 1240/2/6 1248/2/6
f 1240/7/6 1241/7/6 1248/7/6
f 1241/7/6 1242/7/6 1248/7/6
f 1244/2/6 1245/2/6 1249/2/6
f 1248/7/6 1243/7/6 1249/7/6
f 1243/2/6 1244/2/6 1249/2/6
f 1245/2/6 1246/2/6 1249/2/6
f 1246/2/6 1236/2/6 1250/2/6
f 1249/2/6 1246/2/6 1250/2/6
f 1236/2/6 1100/2/6 1250/2/6
